<svg width="900" height="2700" viewBox="0 0 900 2700" fill="none" xmlns="http://www.w3.org/2000/svg">
<g clip-path="url(#clip0_5244_19578)">
<rect width="900" height="2700" fill="#27675A"/>
<g opacity="0.8">
<path d="M336.347 2094.67C526.831 1973.59 583.096 1721.02 462.016 1530.53C340.937 1340.05 88.3644 1283.78 -102.12 1404.86C-292.605 1525.94 -348.869 1778.52 -227.79 1969C-106.71 2159.48 145.862 2215.75 336.347 2094.67Z" fill="#318170"/>
<path fill-rule="evenodd" clip-rule="evenodd" d="M341.996 2107.57C531.594 1987.06 587.596 1735.66 467.081 1546.06C346.565 1356.46 95.1682 1300.46 -94.4296 1420.98C-284.027 1541.49 -340.03 1792.89 -219.514 1982.49C-98.9983 2172.09 152.398 2228.09 341.996 2107.57Z" fill="#31806F"/>
<path fill-rule="evenodd" clip-rule="evenodd" d="M347.642 2120.47C536.353 2000.52 592.093 1750.3 472.141 1561.59C352.189 1372.88 101.968 1317.14 -86.743 1437.09C-275.454 1557.04 -331.194 1807.26 -211.242 1995.97C-91.2903 2184.68 158.931 2240.42 347.642 2120.47Z" fill="#30806F"/>
<path fill-rule="evenodd" clip-rule="evenodd" d="M353.287 2133.37C541.112 2013.99 596.59 1764.94 477.201 1577.12C357.813 1389.29 108.768 1333.81 -79.0564 1453.2C-266.881 1572.59 -322.359 1821.64 -202.971 2009.46C-83.5823 2197.28 165.463 2252.76 353.287 2133.37Z" fill="#307F6E"/>
<path fill-rule="evenodd" clip-rule="evenodd" d="M358.935 2146.28C545.872 2027.45 601.089 1779.58 482.264 1592.64C363.439 1405.71 115.57 1350.49 -71.3678 1469.31C-258.305 1588.14 -313.522 1836.01 -194.697 2022.95C-75.8723 2209.88 171.997 2265.1 358.935 2146.28Z" fill="#307E6D"/>
<path fill-rule="evenodd" clip-rule="evenodd" d="M364.584 2159.18C550.635 2040.92 605.589 1794.22 487.328 1608.17C369.067 1422.12 122.374 1367.17 -63.6772 1485.43C-249.728 1603.69 -304.683 1850.38 -186.421 2036.43C-68.1604 2222.48 178.533 2277.44 364.584 2159.18Z" fill="#307D6D"/>
<path fill-rule="evenodd" clip-rule="evenodd" d="M370.229 2172.08C555.394 2054.38 610.086 1808.86 492.389 1623.7C374.691 1438.54 129.173 1383.84 -55.9906 1501.54C-241.155 1619.24 -295.847 1864.76 -178.15 2049.92C-60.4524 2235.08 185.065 2289.78 370.229 2172.08Z" fill="#2F7D6C"/>
<path fill-rule="evenodd" clip-rule="evenodd" d="M375.877 2184.98C560.154 2067.84 614.585 1823.5 497.451 1639.23C380.317 1454.95 135.975 1400.52 -48.302 1517.65C-232.579 1634.79 -287.01 1879.13 -169.876 2063.4C-52.7424 2247.68 191.6 2302.11 375.877 2184.98Z" fill="#2F7C6B"/>
<path fill-rule="evenodd" clip-rule="evenodd" d="M381.524 2197.88C564.915 2081.31 619.084 1838.15 502.514 1654.76C385.943 1471.37 142.777 1417.2 -40.6134 1533.77C-224.004 1650.34 -278.173 1893.5 -161.603 2076.89C-45.0325 2260.28 198.134 2314.45 381.524 2197.88Z" fill="#2F7B6B"/>
<path fill-rule="evenodd" clip-rule="evenodd" d="M387.17 2210.78C569.674 2094.78 623.581 1852.79 507.574 1670.28C391.568 1487.78 149.577 1433.87 -32.9268 1549.88C-215.431 1665.89 -269.337 1907.88 -153.331 2090.38C-37.3245 2272.88 204.666 2326.79 387.17 2210.78Z" fill="#2F7A6A"/>
<path fill-rule="evenodd" clip-rule="evenodd" d="M392.817 2223.68C574.434 2108.24 628.079 1867.43 512.636 1685.81C397.194 1504.19 156.379 1450.55 -25.2382 1565.99C-206.855 1681.43 -260.5 1922.25 -145.057 2103.86C-29.6145 2285.48 211.2 2339.13 392.817 2223.68Z" fill="#2E7A6A"/>
<path fill-rule="evenodd" clip-rule="evenodd" d="M398.465 2236.59C579.195 2121.71 632.578 1882.07 517.699 1701.34C402.82 1520.61 163.181 1467.23 -17.5496 1582.1C-198.28 1696.98 -251.663 1936.62 -136.784 2117.35C-21.9046 2298.08 217.734 2351.47 398.465 2236.59Z" fill="#2E7969"/>
<path fill-rule="evenodd" clip-rule="evenodd" d="M404.108 2249.49C583.952 2135.17 637.073 1896.71 522.757 1716.86C408.442 1537.02 169.979 1483.9 -9.86491 1598.22C-189.709 1712.53 -242.83 1950.99 -128.514 2130.84C-14.1985 2310.68 224.265 2363.8 404.108 2249.49Z" fill="#2E7868"/>
<path fill-rule="evenodd" clip-rule="evenodd" d="M409.758 2262.39C588.715 2148.64 641.574 1911.35 527.822 1732.39C414.07 1553.43 176.783 1500.58 -2.17436 1614.33C-181.131 1728.08 -233.99 1965.37 -120.238 2144.32C-6.48658 2323.28 230.801 2376.14 409.758 2262.39Z" fill="#2D7768"/>
<path fill-rule="evenodd" clip-rule="evenodd" d="M415.405 2275.29C593.475 2162.1 646.072 1925.99 532.884 1747.92C419.696 1569.85 183.584 1517.25 5.51423 1630.44C-172.556 1743.63 -225.153 1979.74 -111.965 2157.81C1.22338 2335.88 237.335 2388.48 415.405 2275.29Z" fill="#2D7767"/>
<path fill-rule="evenodd" clip-rule="evenodd" d="M421.053 2288.19C598.236 2175.57 650.571 1940.63 537.947 1763.45C425.322 1586.27 190.386 1533.93 13.2028 1646.55C-163.981 1759.18 -216.316 1994.11 -103.691 2171.3C8.93335 2348.48 243.869 2400.82 421.053 2288.19Z" fill="#2D7666"/>
<path fill-rule="evenodd" clip-rule="evenodd" d="M426.698 2301.09C602.995 2189.03 655.068 1955.27 543.007 1778.98C430.946 1602.68 197.186 1550.61 20.8895 1662.67C-155.407 1774.73 -207.481 2008.49 -95.4196 2184.78C16.6413 2361.08 250.401 2413.15 426.698 2301.09Z" fill="#2D7566"/>
<path fill-rule="evenodd" clip-rule="evenodd" d="M432.345 2314C607.755 2202.5 659.567 1969.91 548.07 1794.5C436.572 1619.09 203.988 1567.28 28.5781 1678.78C-146.832 1790.28 -198.643 2022.86 -87.146 2198.27C24.3513 2373.68 256.936 2425.49 432.345 2314Z" fill="#2C7465"/>
<path fill-rule="evenodd" clip-rule="evenodd" d="M437.993 2326.9C612.516 2215.96 664.066 1984.55 553.132 1810.03C442.198 1635.51 210.79 1583.96 36.2666 1694.89C-138.257 1805.83 -189.806 2037.23 -78.8724 2211.76C32.0613 2386.28 263.47 2437.83 437.993 2326.9Z" fill="#2C7464"/>
<path fill-rule="evenodd" clip-rule="evenodd" d="M443.638 2339.8C617.275 2229.43 668.562 1999.19 558.192 1825.56C447.822 1651.92 217.59 1600.63 43.9533 1711C-129.683 1821.37 -180.971 2051.61 -70.6007 2225.24C39.7693 2398.88 270.002 2450.17 443.638 2339.8Z" fill="#2C7364"/>
<path fill-rule="evenodd" clip-rule="evenodd" d="M449.288 2352.7C622.037 2242.89 673.063 2013.84 563.257 1841.09C453.45 1668.34 224.394 1617.31 51.6438 1727.12C-121.106 1836.92 -172.132 2065.98 -62.3252 2238.73C47.4812 2411.48 276.538 2462.51 449.288 2352.7Z" fill="#2B7263"/>
<path fill-rule="evenodd" clip-rule="evenodd" d="M454.933 2365.6C626.796 2256.36 677.56 2028.48 568.317 1856.61C459.075 1684.75 231.193 1633.99 59.3305 1743.23C-112.532 1852.47 -163.296 2080.35 -54.0535 2252.22C55.1892 2424.08 283.07 2474.84 454.933 2365.6Z" fill="#2B7162"/>
<path fill-rule="evenodd" clip-rule="evenodd" d="M460.579 2378.5C631.555 2269.82 682.057 2043.12 573.378 1872.14C464.699 1701.17 237.993 1650.66 67.0171 1759.34C-103.959 1868.02 -154.461 2094.73 -45.7819 2265.7C62.8972 2436.68 289.603 2487.18 460.579 2378.5Z" fill="#2B7162"/>
<path fill-rule="evenodd" clip-rule="evenodd" d="M466.228 2391.41C636.318 2283.29 686.557 2057.76 578.442 1887.67C470.327 1717.58 244.797 1667.34 74.7076 1775.46C-95.3818 1883.57 -145.622 2109.1 -37.5063 2279.19C70.6091 2449.28 296.139 2499.52 466.228 2391.41Z" fill="#2B7061"/>
<path fill-rule="evenodd" clip-rule="evenodd" d="M471.876 2404.31C641.078 2296.75 691.056 2072.4 583.505 1903.2C475.953 1733.99 251.599 1684.02 82.3962 1791.57C-86.8065 1899.12 -136.784 2123.47 -29.2327 2292.68C78.319 2461.88 302.673 2511.86 471.876 2404.31Z" fill="#2A6F61"/>
<path fill-rule="evenodd" clip-rule="evenodd" d="M477.523 2417.21C645.839 2310.22 695.555 2087.04 588.567 1918.73C481.579 1750.41 258.401 1700.69 90.0848 1807.68C-78.2311 1914.67 -127.947 2137.85 -20.9591 2306.16C86.029 2474.48 309.207 2524.2 477.523 2417.21Z" fill="#2A6E60"/>
<path fill-rule="evenodd" clip-rule="evenodd" d="M483.168 2430.11C650.598 2323.68 700.052 2101.68 593.627 1934.25C487.203 1766.82 265.201 1717.37 97.7715 1823.79C-69.6577 1930.22 -119.112 2152.22 -12.6874 2319.65C93.737 2487.08 315.739 2536.53 483.168 2430.11Z" fill="#2A6E5F"/>
<path fill-rule="evenodd" clip-rule="evenodd" d="M488.816 2443.01C655.358 2337.15 704.551 2116.32 598.69 1949.78C492.829 1783.24 272.002 1734.05 105.46 1839.91C-61.0824 1945.77 -110.275 2166.59 -4.41381 2333.14C101.447 2499.68 322.273 2548.87 488.816 2443.01Z" fill="#2A6D5F"/>
<path fill-rule="evenodd" clip-rule="evenodd" d="M494.463 2455.91C660.119 2350.62 709.049 2130.96 603.752 1965.31C498.455 1799.65 278.804 1750.72 113.149 1856.02C-52.5071 1961.32 -101.437 2180.97 3.85978 2346.62C109.157 2512.28 328.808 2561.21 494.463 2455.91Z" fill="#296C5E"/>
<path fill-rule="evenodd" clip-rule="evenodd" d="M500.111 2468.81C664.88 2364.08 713.548 2145.6 608.815 1980.84C504.081 1816.07 285.606 1767.4 120.837 1872.13C-43.9317 1976.86 -92.6001 2195.34 12.1334 2360.11C116.867 2524.88 335.342 2573.55 500.111 2468.81Z" fill="#296B5D"/>
<path fill-rule="evenodd" clip-rule="evenodd" d="M505.756 2481.72C669.638 2377.55 718.045 2160.25 613.875 1996.36C509.705 1832.48 292.406 1784.08 128.524 1888.25C-35.3584 1992.42 -83.7648 2209.71 20.4051 2373.6C124.575 2537.48 341.874 2585.89 505.756 2481.72Z" fill="#296B5D"/>
<path fill-rule="evenodd" clip-rule="evenodd" d="M511.406 2494.62C674.401 2391.01 722.546 2174.89 618.939 2011.89C515.333 1848.9 299.21 1800.75 136.214 1904.36C-26.7811 2007.96 -74.9256 2224.09 28.6806 2387.08C132.287 2550.08 348.41 2598.22 511.406 2494.62Z" fill="#286A5C"/>
<path fill-rule="evenodd" clip-rule="evenodd" d="M517.049 2507.52C679.158 2404.47 727.04 2189.53 623.998 2027.42C520.955 1865.31 306.008 1817.43 143.899 1920.47C-18.2096 2023.51 -66.0922 2238.46 36.9503 2400.57C139.993 2562.68 354.94 2610.56 517.049 2507.52Z" fill="#28695B"/>
<path fill-rule="evenodd" clip-rule="evenodd" d="M522.698 2520.42C683.92 2417.94 731.541 2204.17 629.062 2042.95C526.583 1881.73 312.812 1834.1 151.59 1936.58C-9.63233 2039.06 -57.253 2252.83 45.2259 2414.06C147.705 2575.28 361.477 2622.9 522.698 2520.42Z" fill="#28685B"/>
<path fill-rule="evenodd" clip-rule="evenodd" d="M528.344 2533.32C688.679 2431.41 736.038 2218.81 634.123 2058.47C532.208 1898.14 319.612 1850.78 159.276 1952.7C-1.05896 2054.61 -48.4177 2267.21 53.4975 2427.54C155.413 2587.88 368.009 2635.24 528.344 2533.32Z" fill="#28685A"/>
<path fill-rule="evenodd" clip-rule="evenodd" d="M533.993 2546.22C693.442 2444.87 740.539 2233.45 639.187 2074C537.835 1914.56 326.415 1867.46 166.967 1968.81C7.51835 2070.16 -39.5785 2281.58 61.7731 2441.03C163.125 2600.48 374.545 2647.58 533.993 2546.22Z" fill="#276759"/>
<path fill-rule="evenodd" clip-rule="evenodd" d="M539.637 2559.12C698.199 2458.34 745.034 2248.09 644.246 2089.53C543.458 1930.97 333.213 1884.13 174.652 1984.92C16.0898 2085.71 -30.7451 2295.95 70.0428 2454.52C170.831 2613.08 381.075 2659.91 539.637 2559.12Z" fill="#276659"/>
<path fill-rule="evenodd" clip-rule="evenodd" d="M545.286 2572.03C702.961 2471.8 749.534 2262.73 649.31 2105.06C549.086 1947.38 340.017 1900.81 182.342 2001.04C24.667 2101.26 -21.9059 2310.33 78.3184 2468C178.543 2625.68 387.611 2672.25 545.286 2572.03Z" fill="#276658"/>
<path fill-rule="evenodd" clip-rule="evenodd" d="M550.934 2584.93C707.722 2485.27 754.033 2277.37 654.373 2120.59C554.712 1963.8 346.819 1917.49 190.031 2017.15C33.2424 2116.81 -13.0687 2324.7 86.5919 2481.49C186.253 2638.28 394.146 2684.59 550.934 2584.93Z" fill="#266558"/>
<path fill-rule="evenodd" clip-rule="evenodd" d="M556.579 2597.83C712.481 2498.73 758.53 2292.01 659.433 2136.11C560.336 1980.21 353.619 1934.16 197.717 2033.26C41.8158 2132.36 -4.23338 2339.07 94.8636 2494.97C193.961 2650.88 400.678 2696.93 556.579 2597.83Z" fill="#266457"/>
<path fill-rule="evenodd" clip-rule="evenodd" d="M562.227 2610.73C717.241 2512.2 763.029 2306.65 664.495 2151.64C565.962 1996.62 360.421 1950.84 205.406 2049.37C50.3911 2147.9 4.60388 2353.45 103.137 2508.46C201.671 2663.47 407.212 2709.26 562.227 2610.73Z" fill="#266356"/>
<path fill-rule="evenodd" clip-rule="evenodd" d="M567.874 2623.63C722.002 2525.66 767.527 2321.3 669.558 2167.17C571.588 2013.04 367.222 1967.52 213.094 2065.49C58.9665 2163.46 13.4411 2367.82 111.411 2521.95C209.381 2676.08 413.746 2721.6 567.874 2623.63Z" fill="#266356"/>
<path fill-rule="evenodd" clip-rule="evenodd" d="M573.521 2636.53C726.763 2539.13 772.026 2335.94 674.62 2182.7C577.214 2029.45 374.024 1984.19 220.783 2081.6C67.5418 2179 22.2784 2382.19 119.684 2535.43C217.09 2688.68 420.28 2733.94 573.521 2636.53Z" fill="#256255"/>
<path fill-rule="evenodd" clip-rule="evenodd" d="M579.167 2649.43C731.522 2552.59 776.523 2350.58 679.681 2198.22C582.838 2045.87 380.824 2000.87 228.47 2097.71C76.1152 2194.55 31.1137 2396.57 127.956 2548.92C224.798 2701.27 426.812 2746.28 579.167 2649.43Z" fill="#256154"/>
<path fill-rule="evenodd" clip-rule="evenodd" d="M584.814 2662.34C736.282 2566.06 781.022 2365.22 684.743 2213.75C588.464 2062.28 387.626 2017.54 236.158 2113.82C84.6905 2210.1 39.951 2410.94 136.23 2562.41C232.508 2713.87 433.347 2758.61 584.814 2662.34Z" fill="#256054"/>
<path fill-rule="evenodd" clip-rule="evenodd" d="M590.462 2675.24C741.043 2579.52 785.521 2379.86 689.805 2229.28C594.09 2078.7 394.428 2034.22 243.847 2129.93C93.2658 2225.65 48.7882 2425.31 144.503 2575.89C240.218 2726.47 439.881 2770.95 590.462 2675.24Z" fill="#256053"/>
<path fill-rule="evenodd" clip-rule="evenodd" d="M596.107 2688.14C745.802 2592.99 790.017 2394.5 694.866 2244.81C599.714 2095.11 401.228 2050.9 251.534 2146.05C101.839 2241.2 57.6235 2439.69 152.775 2589.38C247.926 2739.07 446.413 2783.29 596.107 2688.14Z" fill="#245F52"/>
<path fill-rule="evenodd" clip-rule="evenodd" d="M601.757 2701.04C750.564 2606.45 794.518 2409.14 699.93 2260.33C605.342 2111.53 408.032 2067.57 259.224 2162.16C110.417 2256.75 66.4627 2454.06 161.051 2602.87C255.638 2751.67 452.949 2795.63 601.757 2701.04Z" fill="#245E52"/>
<path fill-rule="evenodd" clip-rule="evenodd" d="M607.402 2713.94C755.323 2619.92 799.015 2423.78 704.991 2275.86C610.967 2127.94 414.831 2084.25 266.911 2178.27C118.99 2272.3 75.298 2468.43 169.322 2616.35C263.346 2764.27 459.481 2807.97 607.402 2713.94Z" fill="#245D51"/>
<path fill-rule="evenodd" clip-rule="evenodd" d="M613.05 2726.84C760.084 2633.38 803.514 2438.42 710.053 2291.39C616.593 2144.36 421.633 2100.93 274.599 2194.39C127.565 2287.85 84.1353 2482.81 177.596 2629.84C271.056 2776.87 466.016 2820.3 613.05 2726.84Z" fill="#235D50"/>
<path fill-rule="evenodd" clip-rule="evenodd" d="M618.697 2739.75C764.844 2646.85 808.012 2453.06 715.115 2306.92C622.219 2160.77 428.435 2117.6 282.288 2210.5C136.141 2303.4 92.9726 2497.18 185.869 2643.33C278.766 2789.47 472.55 2832.64 618.697 2739.75Z" fill="#235C50"/>
<path fill-rule="evenodd" clip-rule="evenodd" d="M624.345 2752.65C769.605 2660.31 812.511 2467.71 720.178 2322.44C627.845 2177.18 435.237 2134.28 289.976 2226.61C144.716 2318.94 101.81 2511.55 194.143 2656.81C286.476 2802.07 479.084 2844.98 624.345 2752.65Z" fill="#235B4F"/>
<path fill-rule="evenodd" clip-rule="evenodd" d="M629.992 2765.55C774.366 2673.78 817.01 2482.35 725.24 2337.97C633.471 2193.6 442.039 2150.96 297.665 2242.72C153.291 2334.49 110.647 2525.93 202.417 2670.3C294.186 2814.67 485.618 2857.32 629.992 2765.55Z" fill="#235A4F"/>
<path fill-rule="evenodd" clip-rule="evenodd" d="M635.637 2778.45C779.125 2687.24 821.507 2496.99 730.301 2353.5C639.095 2210.01 448.839 2167.63 305.352 2258.84C161.865 2350.04 119.482 2540.3 210.688 2683.79C301.894 2827.27 492.15 2869.66 635.637 2778.45Z" fill="#225A4E"/>
<path fill-rule="evenodd" clip-rule="evenodd" d="M641.285 2791.35C783.885 2700.71 826.006 2511.63 735.363 2369.03C644.721 2226.43 455.641 2184.31 313.04 2274.95C170.44 2365.59 128.32 2554.67 218.962 2697.27C309.604 2839.87 498.685 2881.99 641.285 2791.35Z" fill="#22594D"/>
<path fill-rule="evenodd" clip-rule="evenodd" d="M646.932 2804.25C788.646 2714.17 830.504 2526.27 740.426 2384.55C650.347 2242.84 462.442 2200.98 320.729 2291.06C179.015 2381.14 137.157 2569.04 227.235 2710.76C317.314 2852.47 505.219 2894.33 646.932 2804.25Z" fill="#22584D"/>
<path fill-rule="evenodd" clip-rule="evenodd" d="M652.578 2817.15C793.405 2727.64 835.001 2540.91 745.486 2400.08C655.971 2259.26 469.242 2217.66 328.416 2307.18C187.589 2396.69 145.992 2583.42 235.507 2724.25C325.022 2865.07 511.751 2906.67 652.578 2817.15Z" fill="#21574C"/>
<path fill-rule="evenodd" clip-rule="evenodd" d="M658.225 2830.05C798.165 2741.1 839.5 2555.55 750.549 2415.61C661.597 2275.67 476.044 2234.34 336.104 2323.29C196.164 2412.24 154.829 2597.79 243.781 2737.73C332.732 2877.67 518.285 2919.01 658.225 2830.05Z" fill="#21574B"/>
<path fill-rule="evenodd" clip-rule="evenodd" d="M663.873 2842.96C802.926 2754.57 843.999 2570.19 755.611 2431.14C667.223 2292.09 482.846 2251.01 343.793 2339.4C204.739 2427.79 163.667 2612.17 252.054 2751.22C340.442 2890.27 524.819 2931.35 663.873 2842.96Z" fill="#21564B"/>
<path fill-rule="evenodd" clip-rule="evenodd" d="M669.518 2855.86C807.685 2768.04 848.495 2584.83 760.671 2446.67C672.847 2308.5 489.646 2267.69 351.479 2355.51C213.313 2443.34 172.502 2626.54 260.326 2764.71C348.15 2902.87 531.352 2943.68 669.518 2855.86Z" fill="#21554A"/>
<path fill-rule="evenodd" clip-rule="evenodd" d="M675.168 2868.76C812.447 2781.5 852.996 2599.47 765.736 2462.19C678.475 2324.91 496.45 2284.37 359.17 2371.63C221.89 2458.89 181.341 2640.91 268.602 2778.19C355.862 2915.47 537.888 2956.02 675.168 2868.76Z" fill="#205449"/>
<path fill-rule="evenodd" clip-rule="evenodd" d="M680.815 2881.66C817.208 2794.96 857.495 2614.11 770.798 2477.72C684.102 2341.33 503.252 2301.04 366.858 2387.74C230.465 2474.43 190.179 2655.28 276.875 2791.68C363.572 2928.07 544.422 2968.36 680.815 2881.66Z" fill="#205449"/>
<path fill-rule="evenodd" clip-rule="evenodd" d="M686.46 2894.56C821.967 2808.43 861.992 2628.76 775.859 2493.25C689.726 2357.74 510.051 2317.72 374.545 2403.85C239.039 2489.98 199.014 2669.66 285.147 2805.16C371.28 2940.67 550.954 2980.7 686.46 2894.56Z" fill="#205348"/>
<path fill-rule="evenodd" clip-rule="evenodd" d="M692.108 2907.47C826.727 2821.9 866.491 2643.4 780.921 2508.78C695.352 2374.16 516.853 2334.4 382.234 2419.96C247.614 2505.53 207.851 2684.03 293.42 2818.65C378.99 2953.27 557.488 2993.03 692.108 2907.47Z" fill="#205247"/>
<path fill-rule="evenodd" clip-rule="evenodd" d="M697.753 2920.37C831.486 2835.36 870.987 2658.04 785.982 2524.3C700.976 2390.57 523.653 2351.07 389.92 2436.08C256.187 2521.08 216.686 2698.4 301.692 2832.14C386.698 2965.87 564.021 3005.37 697.753 2920.37Z" fill="#1F5147"/>
<path fill-rule="evenodd" clip-rule="evenodd" d="M703.403 2933.27C836.249 2848.82 875.488 2672.68 791.046 2539.83C706.604 2406.99 530.457 2367.75 397.611 2452.19C264.765 2536.63 225.526 2712.78 309.968 2845.62C394.41 2978.47 570.557 3017.71 703.403 2933.27Z" fill="#1F5146"/>
<path fill-rule="evenodd" clip-rule="evenodd" d="M709.048 2946.17C841.008 2862.29 879.985 2687.32 796.106 2555.36C712.228 2423.4 537.257 2384.42 405.297 2468.3C273.338 2552.18 234.361 2727.15 318.239 2859.11C402.118 2991.07 577.089 3030.05 709.048 2946.17Z" fill="#1F5046"/>
<path fill-rule="evenodd" clip-rule="evenodd" d="M714.696 2959.07C845.768 2875.75 884.484 2701.96 801.169 2570.89C717.854 2439.81 544.059 2401.1 412.986 2484.41C281.913 2567.73 243.198 2741.52 326.513 2872.6C409.828 3003.67 583.623 3042.38 714.696 2959.07Z" fill="#1E4F45"/>
<path fill-rule="evenodd" clip-rule="evenodd" d="M720.343 2971.97C850.529 2889.22 888.982 2716.6 806.231 2586.42C723.48 2456.23 550.861 2417.78 420.675 2500.53C290.489 2583.28 252.035 2755.9 334.787 2886.08C417.538 3016.27 590.157 3054.72 720.343 2971.97Z" fill="#1E4F44"/>
<path fill-rule="evenodd" clip-rule="evenodd" d="M725.99 2984.87C855.29 2902.69 893.481 2731.24 811.294 2601.94C729.106 2472.64 557.662 2434.45 428.363 2516.64C299.064 2598.83 260.873 2770.27 343.06 2899.57C425.248 3028.87 596.691 3067.06 725.99 2984.87Z" fill="#1E4E44"/>
<path fill-rule="evenodd" clip-rule="evenodd" d="M731.636 2997.78C860.048 2916.15 897.978 2745.88 816.354 2617.47C734.73 2489.06 564.462 2451.13 436.05 2532.75C307.638 2614.38 269.708 2784.65 351.332 2913.06C432.956 3041.47 603.224 3079.4 731.636 2997.78Z" fill="#1E4D43"/>
<path fill-rule="evenodd" clip-rule="evenodd" d="M737.285 3010.68C864.811 2929.62 902.479 2760.52 821.419 2633C740.358 2505.47 571.266 2467.8 443.74 2548.86C316.215 2629.93 278.547 2799.02 359.607 2926.54C440.668 3054.07 609.76 3091.74 737.285 3010.68Z" fill="#1D4C42"/>
<path fill-rule="evenodd" clip-rule="evenodd" d="M742.931 3023.58C869.57 2943.08 906.975 2775.16 826.479 2648.53C745.982 2521.89 578.066 2484.48 451.427 2564.98C324.788 2645.47 287.382 2813.39 367.879 2940.03C448.376 3066.67 616.292 3104.07 742.931 3023.58Z" fill="#1D4C42"/>
<path fill-rule="evenodd" clip-rule="evenodd" d="M748.578 3036.48C874.33 2956.55 911.474 2789.81 831.541 2664.06C751.609 2538.3 584.868 2501.16 459.116 2581.09C333.364 2661.03 296.22 2827.77 376.153 2953.52C456.086 3079.27 622.826 3116.41 748.578 3036.48Z" fill="#1D4B41"/>
<path fill-rule="evenodd" clip-rule="evenodd" d="M754.226 3049.38C879.091 2970.01 915.973 2804.45 836.604 2679.58C757.235 2554.72 591.67 2517.83 466.804 2597.2C341.939 2676.57 305.057 2842.14 384.426 2967C463.795 3091.87 629.36 3128.75 754.226 3049.38Z" fill="#1C4A40"/>
<path fill-rule="evenodd" clip-rule="evenodd" d="M759.873 3062.28C883.852 2983.48 920.472 2819.09 841.666 2695.11C762.861 2571.13 598.471 2534.51 474.493 2613.32C350.514 2692.12 313.894 2856.51 392.7 2980.49C471.505 3104.47 635.895 3141.09 759.873 3062.28Z" fill="#1C4940"/>
<path fill-rule="evenodd" clip-rule="evenodd" d="M765.517 3075.18C888.609 2996.94 924.967 2833.73 846.725 2710.64C768.483 2587.54 605.269 2551.19 482.178 2629.43C359.086 2707.67 322.728 2870.88 400.97 2993.98C479.211 3117.07 642.425 3153.43 765.517 3075.18Z" fill="#1C493F"/>
<path fill-rule="evenodd" clip-rule="evenodd" d="M771.164 3088.09C893.369 3010.41 929.465 2848.37 851.787 2726.16C774.109 2603.96 612.071 2567.86 489.866 2645.54C367.661 2723.22 331.565 2885.26 409.243 3007.46C486.921 3129.67 648.959 3165.76 771.164 3088.09Z" fill="#1C483E"/>
<path fill-rule="evenodd" clip-rule="evenodd" d="M776.813 3100.99C898.132 3023.87 933.966 2863.01 856.851 2741.69C779.737 2620.37 618.875 2584.54 497.557 2661.65C376.238 2738.77 340.404 2899.63 417.519 3020.95C494.633 3142.27 655.495 3178.1 776.813 3100.99Z" fill="#1B473E"/>
<path fill-rule="evenodd" clip-rule="evenodd" d="M782.461 3113.89C902.893 3037.34 938.465 2877.65 861.914 2757.22C785.363 2636.79 625.677 2601.22 505.245 2677.77C384.814 2754.32 349.241 2914.01 425.792 3034.44C502.343 3154.87 662.029 3190.44 782.461 3113.89Z" fill="#1B463D"/>
<path fill-rule="evenodd" clip-rule="evenodd" d="M788.106 3126.79C907.651 3050.8 942.962 2892.29 866.974 2772.75C790.987 2653.2 632.477 2617.89 512.932 2693.88C393.387 2769.87 358.077 2928.38 434.064 3047.92C510.051 3167.47 668.562 3202.78 788.106 3126.79Z" fill="#1B463D"/>
<path fill-rule="evenodd" clip-rule="evenodd" d="M793.754 3139.69C912.412 3064.27 947.46 2906.93 872.037 2788.28C796.613 2669.62 639.279 2634.57 520.62 2709.99C401.962 2785.42 366.914 2942.75 442.338 3061.41C517.761 3180.07 675.096 3215.12 793.754 3139.69Z" fill="#1B453C"/>
<path fill-rule="evenodd" clip-rule="evenodd" d="M799.401 3152.59C917.173 3077.73 951.959 2921.58 877.099 2803.8C802.239 2686.03 646.081 2651.25 528.309 2726.11C410.538 2800.97 375.751 2957.13 450.611 3074.9C525.471 3192.67 681.63 3227.45 799.401 3152.59Z" fill="#1A443B"/>
<path fill-rule="evenodd" clip-rule="evenodd" d="M805.047 3165.5C921.931 3091.2 956.456 2936.22 882.16 2819.33C807.863 2702.45 652.88 2667.92 535.996 2742.22C419.111 2816.51 384.586 2971.5 458.883 3088.38C533.179 3205.27 688.162 3239.79 805.047 3165.5Z" fill="#1A433B"/>
<path fill-rule="evenodd" clip-rule="evenodd" d="M810.696 3178.4C926.694 3104.66 960.957 2950.86 887.224 2834.86C813.491 2718.86 659.684 2684.6 543.686 2758.33C427.688 2832.06 393.426 2985.87 467.158 3101.87C540.891 3217.87 694.698 3252.13 810.696 3178.4Z" fill="#1A433A"/>
<path fill-rule="evenodd" clip-rule="evenodd" d="M816.342 3191.3C931.453 3118.13 965.454 2965.5 892.285 2850.39C819.115 2735.28 666.484 2701.27 551.373 2774.44C436.262 2847.61 402.261 3000.24 475.43 3115.36C548.599 3230.47 701.23 3264.47 816.342 3191.3Z" fill="#194239"/>
<path fill-rule="evenodd" clip-rule="evenodd" d="M821.987 3204.2C936.212 3131.59 969.95 2980.14 897.345 2865.91C824.74 2751.69 673.284 2717.95 559.06 2790.56C444.835 2863.16 411.096 3014.62 483.702 3128.84C556.307 3243.06 707.763 3276.8 821.987 3204.2Z" fill="#194139"/>
<path fill-rule="evenodd" clip-rule="evenodd" d="M827.637 3217.1C940.974 3145.06 974.451 2994.78 902.409 2881.44C830.368 2768.1 680.088 2734.63 566.75 2806.67C453.412 2878.71 419.935 3028.99 491.977 3142.33C564.019 3255.67 714.299 3289.14 827.637 3217.1Z" fill="#194038"/>
<path d="M680.239 664.394C848.242 716.298 1026.51 622.181 1078.42 454.178C1130.32 286.175 1036.2 107.906 868.199 56.0021C700.196 4.09839 521.927 98.2153 470.023 266.218C418.12 434.221 512.237 612.49 680.239 664.394Z" fill="#318170"/>
<path fill-rule="evenodd" clip-rule="evenodd" d="M675.436 674.257C842.657 725.919 1020.1 632.241 1071.76 465.02C1123.42 297.799 1029.74 120.36 862.521 68.6977C695.3 17.0357 517.861 110.714 466.199 277.935C414.537 445.156 508.215 622.595 675.436 674.257Z" fill="#31806F"/>
<path fill-rule="evenodd" clip-rule="evenodd" d="M670.631 684.12C837.07 735.54 1013.68 642.3 1065.1 475.861C1116.52 309.423 1023.28 132.813 856.841 81.3924C690.402 29.972 513.793 123.213 462.372 289.651C410.952 456.09 504.192 632.699 670.631 684.12Z" fill="#30806F"/>
<path fill-rule="evenodd" clip-rule="evenodd" d="M665.826 693.984C831.482 745.163 1007.26 652.361 1058.44 486.704C1109.62 321.048 1016.82 145.268 851.161 94.0891C685.504 42.9102 509.725 135.713 458.546 301.369C407.367 467.026 500.169 642.805 665.826 693.984Z" fill="#307F6E"/>
<path fill-rule="evenodd" clip-rule="evenodd" d="M661.021 703.849C825.895 754.786 1000.85 662.422 1051.78 497.547C1102.72 332.673 1010.36 157.723 845.481 106.786C680.606 55.8485 505.656 148.213 454.719 313.087C403.782 477.962 496.146 652.912 661.021 703.849Z" fill="#307E6D"/>
<path fill-rule="evenodd" clip-rule="evenodd" d="M656.218 713.712C820.31 764.408 994.43 672.482 1045.13 508.389C1095.82 344.297 1003.89 170.177 839.803 119.481C675.71 68.7858 501.59 160.712 450.895 324.804C400.199 488.897 492.125 663.017 656.218 713.712Z" fill="#307D6D"/>
<path fill-rule="evenodd" clip-rule="evenodd" d="M651.413 723.576C814.723 774.03 988.013 682.542 1038.47 519.231C1088.92 355.921 997.433 182.631 834.122 132.177C670.812 81.7231 497.522 173.211 447.068 336.521C396.614 499.832 488.102 673.122 651.413 723.576Z" fill="#2F7D6C"/>
<path fill-rule="evenodd" clip-rule="evenodd" d="M646.607 733.439C809.136 783.651 981.596 692.602 1031.81 530.073C1082.02 367.545 990.97 195.085 828.442 144.873C665.914 94.6603 493.454 185.71 443.242 348.238C393.029 510.767 484.079 683.227 646.607 733.439Z" fill="#2F7C6B"/>
<path fill-rule="evenodd" clip-rule="evenodd" d="M641.804 743.304C803.55 793.274 975.181 702.663 1025.15 540.916C1075.12 379.17 984.51 207.54 822.764 157.569C661.018 107.599 489.388 198.21 439.417 359.957C389.446 521.703 480.058 693.333 641.804 743.304Z" fill="#2F7B6B"/>
<path fill-rule="evenodd" clip-rule="evenodd" d="M636.999 753.164C797.963 802.893 968.764 712.72 1018.49 551.756C1068.22 390.792 978.048 219.991 817.084 170.262C656.12 120.533 485.32 210.707 435.591 371.671C385.861 532.635 476.035 703.435 636.999 753.164Z" fill="#2F7A6A"/>
<path fill-rule="evenodd" clip-rule="evenodd" d="M632.194 763.029C792.376 812.517 962.346 722.781 1011.83 562.6C1061.32 402.418 971.586 232.447 811.404 182.96C651.222 133.472 481.252 223.208 431.764 383.39C382.277 543.571 472.012 713.542 632.194 763.029Z" fill="#2E7A6A"/>
<path fill-rule="evenodd" clip-rule="evenodd" d="M627.389 772.893C786.789 822.139 955.929 732.841 1005.18 573.442C1054.42 414.042 965.124 244.901 805.724 195.655C646.324 146.409 477.183 235.707 427.937 395.107C378.692 554.507 467.989 723.647 627.389 772.893Z" fill="#2E7969"/>
<path fill-rule="evenodd" clip-rule="evenodd" d="M622.584 782.756C781.201 831.76 949.512 742.901 998.517 584.283C1047.52 425.665 958.661 257.354 800.044 208.35C641.426 159.346 473.115 248.205 424.111 406.823C375.107 565.441 463.966 733.751 622.584 782.756Z" fill="#2E7868"/>
<path fill-rule="evenodd" clip-rule="evenodd" d="M617.781 792.62C775.616 841.383 943.097 752.962 991.86 595.126C1040.62 437.29 952.201 269.809 794.366 221.047C636.53 172.284 469.049 260.705 420.286 418.541C371.524 576.377 459.945 743.857 617.781 792.62Z" fill="#2D7768"/>
<path fill-rule="evenodd" clip-rule="evenodd" d="M612.977 802.483C770.031 851.004 936.682 763.021 985.203 605.968C1033.72 448.914 945.741 282.263 788.687 233.742C631.634 185.221 464.983 273.204 416.462 430.258C367.941 587.311 455.924 753.962 612.977 802.483Z" fill="#2D7767"/>
<path fill-rule="evenodd" clip-rule="evenodd" d="M608.172 812.347C764.444 860.626 930.265 773.081 978.544 616.81C1026.82 460.538 939.279 294.717 783.007 246.438C626.736 198.159 460.915 285.703 412.635 441.975C364.356 598.246 451.901 764.068 608.172 812.347Z" fill="#2D7666"/>
<path fill-rule="evenodd" clip-rule="evenodd" d="M603.367 822.21C758.857 870.248 923.848 783.141 971.886 627.652C1019.92 472.163 932.817 307.171 777.327 259.134C621.838 211.096 456.847 298.203 408.809 453.692C360.771 609.181 447.878 774.173 603.367 822.21Z" fill="#2D7566"/>
<path fill-rule="evenodd" clip-rule="evenodd" d="M598.562 832.074C753.269 879.87 917.431 793.201 965.227 638.494C1013.02 483.787 926.354 319.625 771.647 271.829C616.94 224.033 452.778 310.702 404.982 465.409C357.186 620.116 443.855 784.278 598.562 832.074Z" fill="#2C7465"/>
<path fill-rule="evenodd" clip-rule="evenodd" d="M593.759 841.938C747.684 889.493 911.016 803.262 958.57 649.337C1006.12 495.412 919.894 332.08 765.969 284.526C612.044 236.971 448.712 323.202 401.158 477.127C353.603 631.052 439.834 794.384 593.759 841.938Z" fill="#2C7464"/>
<path fill-rule="evenodd" clip-rule="evenodd" d="M588.954 851.801C742.097 899.114 904.599 813.321 951.911 660.178C999.224 507.035 913.432 344.533 760.289 297.221C607.146 249.908 444.644 335.7 397.331 488.843C350.018 641.986 435.811 804.488 588.954 851.801Z" fill="#2C7364"/>
<path fill-rule="evenodd" clip-rule="evenodd" d="M584.147 861.664C736.508 908.736 898.179 823.381 945.251 671.02C992.322 518.659 906.968 356.988 754.607 309.916C602.246 262.845 440.574 348.199 393.503 500.56C346.431 652.921 431.786 814.593 584.147 861.664Z" fill="#2B7263"/>
<path fill-rule="evenodd" clip-rule="evenodd" d="M579.344 871.529C730.922 918.358 891.764 833.442 938.594 681.863C985.424 530.284 900.507 369.442 748.929 322.613C597.35 275.783 436.508 360.699 389.678 512.278C342.849 663.857 427.765 824.699 579.344 871.529Z" fill="#2B7162"/>
<path fill-rule="evenodd" clip-rule="evenodd" d="M574.538 881.39C725.335 927.978 885.347 843.5 931.935 692.703C978.523 541.907 894.045 381.895 743.248 335.307C592.452 288.719 432.44 373.197 385.852 523.993C339.264 674.79 423.742 834.802 574.538 881.39Z" fill="#2B7162"/>
<path fill-rule="evenodd" clip-rule="evenodd" d="M569.735 891.256C719.75 937.602 878.932 853.562 925.278 703.547C971.625 553.533 887.585 394.351 737.57 348.004C587.556 301.658 428.373 385.698 382.027 535.712C335.681 685.727 419.72 844.909 569.735 891.256Z" fill="#2B7061"/>
<path fill-rule="evenodd" clip-rule="evenodd" d="M564.93 901.119C714.163 947.224 872.515 863.622 918.62 714.389C964.725 565.157 881.123 406.805 731.89 360.7C582.658 314.595 424.305 398.197 378.201 547.429C332.096 696.662 415.698 855.014 564.93 901.119Z" fill="#2A6F61"/>
<path fill-rule="evenodd" clip-rule="evenodd" d="M560.125 910.984C708.576 956.847 866.098 873.683 911.961 725.233C957.824 576.782 874.661 419.26 726.21 373.397C577.76 327.533 420.237 410.697 374.374 559.147C328.511 707.598 411.674 865.12 560.125 910.984Z" fill="#2A6E60"/>
<path fill-rule="evenodd" clip-rule="evenodd" d="M555.32 920.845C702.988 966.467 859.681 883.741 905.302 736.073C950.924 588.404 868.198 431.712 720.53 386.09C572.861 340.469 416.169 423.194 370.548 570.863C324.926 718.531 407.651 875.224 555.32 920.845Z" fill="#2A6E5F"/>
<path fill-rule="evenodd" clip-rule="evenodd" d="M550.517 930.709C697.403 976.089 853.266 893.802 898.646 746.916C944.025 600.029 861.738 444.167 714.852 398.787C567.965 353.407 412.103 435.694 366.723 582.581C321.343 729.467 403.63 885.33 550.517 930.709Z" fill="#2A6D5F"/>
<path fill-rule="evenodd" clip-rule="evenodd" d="M545.712 940.573C691.816 985.711 846.849 903.862 891.987 757.758C937.125 611.653 855.276 456.621 709.172 411.483C563.067 366.344 408.035 448.193 362.896 594.298C317.758 740.402 399.607 895.435 545.712 940.573Z" fill="#296C5E"/>
<path fill-rule="evenodd" clip-rule="evenodd" d="M540.907 950.436C686.229 995.333 840.432 913.922 885.328 768.6C930.225 623.278 848.814 469.075 703.492 424.178C558.169 379.282 403.967 460.693 359.07 606.015C314.173 751.337 395.584 905.54 540.907 950.436Z" fill="#296B5D"/>
<path fill-rule="evenodd" clip-rule="evenodd" d="M536.103 960.3C680.643 1004.95 834.016 923.982 878.671 779.442C923.326 634.902 842.354 481.529 697.813 436.874C553.273 392.219 399.9 473.192 355.245 617.732C310.59 762.272 391.563 915.645 536.103 960.3Z" fill="#296B5D"/>
<path fill-rule="evenodd" clip-rule="evenodd" d="M531.298 970.164C675.056 1014.58 827.599 934.043 872.013 790.285C916.426 646.527 835.891 493.984 692.133 449.57C548.375 405.157 395.832 485.692 351.419 629.45C307.005 773.208 387.54 925.751 531.298 970.164Z" fill="#286A5C"/>
<path fill-rule="evenodd" clip-rule="evenodd" d="M526.493 980.028C669.469 1024.2 821.182 944.103 865.354 801.127C909.526 658.151 829.429 506.438 686.453 462.266C543.477 418.094 391.764 498.191 347.592 641.167C303.421 784.143 383.517 935.856 526.493 980.028Z" fill="#28695B"/>
<path fill-rule="evenodd" clip-rule="evenodd" d="M521.688 989.89C663.882 1033.82 814.765 954.162 858.695 811.968C902.625 669.774 822.967 518.891 680.773 474.961C538.579 431.031 387.696 510.689 343.766 652.883C299.836 795.077 379.494 945.96 521.688 989.89Z" fill="#28685B"/>
<path fill-rule="evenodd" clip-rule="evenodd" d="M516.885 999.755C658.297 1043.44 808.35 964.223 852.039 822.811C895.727 681.399 816.507 531.346 675.095 487.657C533.683 443.969 383.63 523.189 339.941 664.601C296.253 806.013 375.473 956.066 516.885 999.755Z" fill="#28685A"/>
<path fill-rule="evenodd" clip-rule="evenodd" d="M512.08 1009.62C652.709 1053.07 801.933 974.284 845.38 833.654C888.827 693.025 810.044 543.801 669.415 500.354C528.785 456.907 379.562 535.689 336.115 676.319C292.668 816.949 371.45 966.172 512.08 1009.62Z" fill="#276759"/>
<path fill-rule="evenodd" clip-rule="evenodd" d="M507.275 1019.48C647.122 1062.69 795.516 984.343 838.721 844.495C881.926 704.648 803.582 556.254 663.735 513.049C523.887 469.844 375.493 548.188 332.288 688.035C289.083 827.883 367.427 976.276 507.275 1019.48Z" fill="#276659"/>
<path fill-rule="evenodd" clip-rule="evenodd" d="M502.469 1029.35C641.535 1072.31 789.099 994.403 832.062 855.337C875.026 716.272 797.12 568.708 658.055 525.744C518.989 482.781 371.425 560.687 328.462 699.752C285.498 838.818 363.404 986.382 502.469 1029.35Z" fill="#276658"/>
<path fill-rule="evenodd" clip-rule="evenodd" d="M497.666 1039.21C635.95 1081.93 782.684 1004.46 825.406 866.179C868.128 727.896 790.66 581.162 652.376 538.44C514.093 495.718 367.359 573.186 324.637 711.469C281.915 849.753 359.383 996.487 497.666 1039.21Z" fill="#266558"/>
<path fill-rule="evenodd" clip-rule="evenodd" d="M492.861 1049.07C630.362 1091.55 776.267 1014.52 818.747 877.021C861.227 739.519 784.198 593.615 646.696 551.135C509.195 508.654 363.291 585.684 320.811 723.185C278.33 860.687 355.36 1006.59 492.861 1049.07Z" fill="#266457"/>
<path fill-rule="evenodd" clip-rule="evenodd" d="M488.056 1058.94C624.775 1101.17 769.849 1024.58 812.088 887.864C854.327 751.144 777.735 606.07 641.016 563.831C504.297 521.593 359.223 598.184 316.984 734.903C274.745 871.623 351.337 1016.7 488.056 1058.94Z" fill="#266356"/>
<path fill-rule="evenodd" clip-rule="evenodd" d="M483.253 1068.8C619.19 1110.8 763.434 1034.64 805.431 898.707C847.429 762.769 771.275 618.525 635.338 576.528C499.401 534.531 355.157 610.684 313.16 746.621C271.162 882.559 347.316 1026.8 483.253 1068.8Z" fill="#266356"/>
<path fill-rule="evenodd" clip-rule="evenodd" d="M478.448 1078.66C613.603 1120.42 757.017 1044.7 798.773 909.549C840.528 774.394 764.813 630.979 629.658 589.224C494.503 547.468 351.089 623.183 309.333 758.338C267.578 893.494 343.293 1036.91 478.448 1078.66Z" fill="#256255"/>
<path fill-rule="evenodd" clip-rule="evenodd" d="M473.643 1088.53C608.016 1130.04 750.6 1054.76 792.114 920.39C833.628 786.017 758.351 643.432 623.978 601.918C489.605 560.404 347.02 635.682 305.506 770.055C263.993 904.428 339.27 1047.01 473.643 1088.53Z" fill="#256154"/>
<path fill-rule="evenodd" clip-rule="evenodd" d="M468.838 1098.39C602.428 1139.66 744.183 1064.82 785.455 931.233C826.728 797.642 751.889 655.887 618.298 614.615C484.707 573.343 342.952 648.182 301.68 781.773C260.408 915.363 335.247 1057.12 468.838 1098.39Z" fill="#256054"/>
<path fill-rule="evenodd" clip-rule="evenodd" d="M464.034 1108.25C596.843 1149.29 737.768 1074.88 778.799 942.076C819.829 809.267 745.428 668.342 612.62 627.312C479.811 586.281 338.886 660.682 297.855 793.491C256.825 926.299 331.226 1067.22 464.034 1108.25Z" fill="#256053"/>
<path fill-rule="evenodd" clip-rule="evenodd" d="M459.229 1118.12C591.256 1158.91 731.351 1084.94 772.14 952.916C812.929 820.889 738.966 680.794 606.939 640.005C474.913 599.216 334.818 673.179 294.029 805.206C253.24 937.232 327.203 1077.33 459.229 1118.12Z" fill="#245F52"/>
<path fill-rule="evenodd" clip-rule="evenodd" d="M454.424 1127.98C585.669 1168.53 724.934 1095 765.481 963.758C806.029 832.513 732.504 693.248 601.259 652.701C470.015 612.154 330.75 685.678 290.202 816.923C249.655 948.167 323.18 1087.43 454.424 1127.98Z" fill="#245E52"/>
<path fill-rule="evenodd" clip-rule="evenodd" d="M449.621 1137.85C580.083 1178.15 718.519 1105.06 758.824 974.602C799.13 844.14 726.044 705.704 595.581 665.399C465.119 625.093 326.684 698.179 286.378 828.642C246.072 959.104 319.159 1097.54 449.621 1137.85Z" fill="#245D51"/>
<path fill-rule="evenodd" clip-rule="evenodd" d="M444.814 1147.71C574.494 1187.77 712.1 1115.12 752.164 985.443C792.228 855.763 719.58 718.157 589.899 678.093C460.219 638.029 322.614 710.677 282.549 840.358C242.485 970.038 315.134 1107.64 444.814 1147.71Z" fill="#235D50"/>
<path fill-rule="evenodd" clip-rule="evenodd" d="M440.011 1157.57C568.909 1197.39 705.684 1125.18 745.507 996.286C785.33 867.388 713.119 730.613 584.221 690.79C455.323 650.967 318.547 723.178 278.725 852.076C238.902 980.974 311.112 1117.75 440.011 1157.57Z" fill="#235C50"/>
<path fill-rule="evenodd" clip-rule="evenodd" d="M435.206 1167.44C563.322 1207.02 699.267 1135.24 738.848 1007.13C778.429 879.012 706.657 743.067 578.541 703.486C450.425 663.905 314.479 735.677 274.898 863.793C235.317 991.909 307.089 1127.85 435.206 1167.44Z" fill="#235B4F"/>
<path fill-rule="evenodd" clip-rule="evenodd" d="M430.401 1177.3C557.735 1216.64 692.85 1145.3 732.19 1017.97C771.529 890.636 700.195 755.521 572.861 716.181C445.527 676.842 310.411 748.176 271.072 875.51C231.732 1002.84 303.066 1137.96 430.401 1177.3Z" fill="#235A4F"/>
<path fill-rule="evenodd" clip-rule="evenodd" d="M425.597 1187.16C552.149 1226.26 686.435 1155.36 725.533 1028.81C764.63 902.26 693.735 767.975 567.183 728.877C440.631 689.779 306.345 760.675 267.247 887.227C228.149 1013.78 299.045 1148.06 425.597 1187.16Z" fill="#225A4E"/>
<path fill-rule="evenodd" clip-rule="evenodd" d="M420.792 1197.03C546.562 1235.88 680.018 1165.42 718.874 1039.65C757.73 913.884 687.272 780.428 561.502 741.572C435.732 702.716 302.277 773.173 263.421 898.943C224.565 1024.71 295.022 1158.17 420.792 1197.03Z" fill="#22594D"/>
<path fill-rule="evenodd" clip-rule="evenodd" d="M415.989 1206.89C540.977 1245.5 673.603 1175.48 712.217 1050.5C750.832 925.509 680.812 792.883 555.824 754.268C430.836 715.654 298.21 785.673 259.596 910.661C220.982 1035.65 291.001 1168.28 415.989 1206.89Z" fill="#22584D"/>
<path fill-rule="evenodd" clip-rule="evenodd" d="M411.182 1216.75C535.388 1255.12 667.184 1185.54 705.557 1061.34C743.929 937.132 674.348 805.336 550.142 766.963C425.936 728.59 294.14 798.172 255.768 922.377C217.395 1046.58 286.976 1178.38 411.182 1216.75Z" fill="#21574C"/>
<path fill-rule="evenodd" clip-rule="evenodd" d="M406.379 1226.62C529.803 1264.75 660.769 1195.6 698.9 1072.18C737.031 948.757 667.888 817.791 544.464 779.66C421.04 741.528 290.074 810.672 251.943 934.095C213.812 1057.52 282.955 1188.49 406.379 1226.62Z" fill="#21574B"/>
<path fill-rule="evenodd" clip-rule="evenodd" d="M401.574 1236.48C524.215 1274.37 654.352 1205.66 692.241 1083.02C730.131 960.381 661.426 830.245 538.784 792.355C416.142 754.466 286.006 823.171 248.117 945.812C210.227 1068.45 278.932 1198.59 401.574 1236.48Z" fill="#21564B"/>
<path fill-rule="evenodd" clip-rule="evenodd" d="M396.771 1246.34C518.63 1283.99 647.936 1215.72 685.584 1093.86C723.232 972.005 654.965 842.699 533.106 805.051C411.246 767.403 281.94 835.67 244.292 957.53C206.644 1079.39 274.911 1208.7 396.771 1246.34Z" fill="#21554A"/>
<path fill-rule="evenodd" clip-rule="evenodd" d="M391.963 1256.21C513.041 1293.61 641.517 1225.78 678.924 1104.71C716.33 983.629 648.501 855.153 527.424 817.747C406.346 780.34 277.87 848.169 240.463 969.247C203.057 1090.32 270.886 1218.8 391.963 1256.21Z" fill="#205449"/>
<path fill-rule="evenodd" clip-rule="evenodd" d="M387.16 1266.07C507.456 1303.24 635.102 1235.85 672.267 1115.55C709.432 995.255 642.041 867.608 521.746 830.443C401.45 793.279 273.804 860.669 236.639 980.965C199.474 1101.26 266.865 1228.91 387.16 1266.07Z" fill="#205449"/>
<path fill-rule="evenodd" clip-rule="evenodd" d="M382.357 1275.94C501.87 1312.86 628.687 1245.91 665.61 1126.39C702.533 1006.88 635.581 880.063 516.067 843.14C396.554 806.217 269.737 873.169 232.814 992.683C195.891 1112.2 262.844 1239.01 382.357 1275.94Z" fill="#205348"/>
<path fill-rule="evenodd" clip-rule="evenodd" d="M377.552 1285.8C496.283 1322.48 622.27 1255.96 658.952 1137.23C695.633 1018.5 629.119 892.514 510.387 855.833C391.656 819.151 265.669 885.666 228.988 1004.4C192.306 1123.13 258.821 1249.11 377.552 1285.8Z" fill="#205247"/>
<path fill-rule="evenodd" clip-rule="evenodd" d="M372.747 1295.66C490.696 1332.1 615.853 1266.02 652.293 1148.08C688.733 1030.13 622.656 904.969 504.707 868.529C386.758 832.089 261.601 898.166 225.161 1016.11C188.721 1134.06 254.798 1259.22 372.747 1295.66Z" fill="#1F5147"/>
<path fill-rule="evenodd" clip-rule="evenodd" d="M367.942 1305.53C485.109 1341.72 609.436 1276.09 645.634 1158.92C681.832 1041.75 616.194 917.424 499.027 881.226C381.86 845.028 257.533 910.666 221.335 1027.83C185.137 1145 250.775 1269.33 367.942 1305.53Z" fill="#1F5146"/>
<path fill-rule="evenodd" clip-rule="evenodd" d="M363.137 1315.39C479.522 1351.34 603.019 1286.14 638.975 1169.76C674.932 1053.37 609.732 929.877 493.347 893.921C376.962 857.964 253.465 923.164 217.508 1039.55C181.552 1155.93 246.752 1279.43 363.137 1315.39Z" fill="#1F5046"/>
<path fill-rule="evenodd" clip-rule="evenodd" d="M358.334 1325.25C473.936 1360.97 596.604 1296.21 632.319 1180.6C668.034 1065 603.272 942.332 487.669 906.617C372.066 870.902 249.399 935.664 213.684 1051.27C177.969 1166.87 242.731 1289.54 358.334 1325.25Z" fill="#1E4F45"/>
<path fill-rule="evenodd" clip-rule="evenodd" d="M353.528 1335.12C468.349 1370.59 590.187 1306.27 625.66 1191.44C661.133 1076.62 596.809 954.786 481.989 919.313C367.168 883.839 245.331 948.163 209.857 1062.98C174.384 1177.8 238.708 1299.64 353.528 1335.12Z" fill="#1E4F44"/>
<path fill-rule="evenodd" clip-rule="evenodd" d="M348.725 1344.98C462.764 1380.21 583.771 1316.33 619.003 1202.29C654.235 1088.25 590.349 967.241 476.311 932.009C362.272 896.778 241.264 960.663 206.033 1074.7C170.801 1188.74 234.687 1309.75 348.725 1344.98Z" fill="#1E4E44"/>
<path fill-rule="evenodd" clip-rule="evenodd" d="M343.92 1354.84C457.177 1389.83 577.354 1326.39 612.344 1213.13C647.335 1099.87 583.887 979.694 470.63 944.704C357.374 909.714 237.196 973.162 202.206 1086.42C167.216 1199.67 230.664 1319.85 343.92 1354.84Z" fill="#1E4D43"/>
<path fill-rule="evenodd" clip-rule="evenodd" d="M339.115 1364.71C451.589 1399.45 570.937 1336.45 605.686 1223.97C640.434 1111.5 577.425 992.148 464.95 957.4C352.476 922.651 233.128 985.661 198.38 1098.14C163.631 1210.61 226.641 1329.96 339.115 1364.71Z" fill="#1D4C42"/>
<path fill-rule="evenodd" clip-rule="evenodd" d="M334.31 1374.57C446.002 1409.08 564.52 1346.51 599.027 1234.81C633.534 1123.12 570.963 1004.6 459.27 970.096C347.578 935.59 229.06 998.161 194.553 1109.85C160.046 1221.55 222.617 1340.06 334.31 1374.57Z" fill="#1D4C42"/>
<path fill-rule="evenodd" clip-rule="evenodd" d="M329.505 1384.43C440.415 1418.7 558.103 1356.57 592.368 1245.65C626.634 1134.74 564.5 1017.06 453.59 982.791C342.68 948.526 224.992 1010.66 190.727 1121.57C156.461 1232.48 218.594 1350.17 329.505 1384.43Z" fill="#1D4B41"/>
<path fill-rule="evenodd" clip-rule="evenodd" d="M324.702 1394.3C434.83 1428.32 551.688 1366.63 585.712 1256.5C619.735 1146.37 558.04 1029.51 447.912 995.488C337.784 961.464 220.926 1023.16 186.902 1133.29C152.878 1243.42 214.573 1360.27 324.702 1394.3Z" fill="#1C4A40"/>
<path fill-rule="evenodd" clip-rule="evenodd" d="M319.896 1404.16C429.243 1437.94 545.271 1376.69 579.053 1267.34C612.835 1157.99 551.578 1041.97 442.232 1008.18C332.886 974.401 216.857 1035.66 183.075 1145C149.293 1254.35 210.55 1370.38 319.896 1404.16Z" fill="#1C4940"/>
<path fill-rule="evenodd" clip-rule="evenodd" d="M315.091 1414.02C423.655 1447.56 538.854 1386.75 572.394 1278.18C605.935 1169.62 545.116 1054.42 436.552 1020.88C327.988 987.338 212.789 1048.16 179.249 1156.72C145.709 1265.28 206.527 1380.48 315.091 1414.02Z" fill="#1C493F"/>
<path fill-rule="evenodd" clip-rule="evenodd" d="M310.286 1423.89C418.068 1457.19 532.437 1396.81 565.735 1289.02C599.034 1181.24 538.654 1066.87 430.872 1033.57C323.09 1000.28 208.721 1060.66 175.422 1168.44C142.124 1276.22 202.504 1390.59 310.286 1423.89Z" fill="#1C483E"/>
<path fill-rule="evenodd" clip-rule="evenodd" d="M305.483 1433.75C412.483 1466.81 526.022 1406.87 559.079 1299.87C592.136 1192.87 532.193 1079.33 425.193 1046.27C318.194 1013.21 204.655 1073.16 171.598 1180.16C138.541 1287.16 198.483 1400.69 305.483 1433.75Z" fill="#1B473E"/>
<path fill-rule="evenodd" clip-rule="evenodd" d="M300.678 1443.62C406.896 1476.43 519.604 1416.93 552.42 1310.71C585.235 1204.49 525.731 1091.78 419.513 1058.97C313.296 1026.15 200.587 1085.66 167.771 1191.87C134.956 1298.09 194.46 1410.8 300.678 1443.62Z" fill="#1B463D"/>
<path fill-rule="evenodd" clip-rule="evenodd" d="M295.875 1453.48C401.31 1486.05 513.189 1426.98 545.763 1321.55C578.337 1216.11 519.271 1104.23 413.835 1071.66C308.4 1039.09 196.521 1098.15 163.947 1203.59C131.373 1309.02 190.439 1420.9 295.875 1453.48Z" fill="#1B463D"/>
<path fill-rule="evenodd" clip-rule="evenodd" d="M291.068 1463.34C395.721 1495.67 506.77 1437.05 539.103 1332.39C571.435 1227.74 512.807 1116.69 408.153 1084.36C303.5 1052.03 192.451 1110.65 160.118 1215.31C127.786 1319.96 186.414 1431.01 291.068 1463.34Z" fill="#1B453C"/>
<path fill-rule="evenodd" clip-rule="evenodd" d="M286.265 1473.21C390.136 1505.3 500.355 1447.11 532.446 1343.24C564.536 1239.36 506.347 1129.14 402.475 1097.05C298.603 1064.96 188.384 1123.15 156.294 1227.02C124.203 1330.9 182.393 1441.12 286.265 1473.21Z" fill="#1A443B"/>
<path fill-rule="evenodd" clip-rule="evenodd" d="M281.459 1483.07C384.549 1514.92 493.938 1457.16 525.787 1354.08C557.636 1250.99 499.884 1141.6 396.795 1109.75C293.705 1077.9 184.316 1135.65 152.467 1238.74C120.618 1341.83 178.37 1451.22 281.459 1483.07Z" fill="#1A433B"/>
<path fill-rule="evenodd" clip-rule="evenodd" d="M276.654 1492.93C378.962 1524.54 487.521 1467.23 519.128 1364.92C550.736 1262.61 493.422 1154.05 391.115 1122.44C288.807 1090.84 180.248 1148.15 148.641 1250.46C117.033 1352.77 174.347 1461.32 276.654 1492.93Z" fill="#1A433A"/>
<path fill-rule="evenodd" clip-rule="evenodd" d="M271.851 1502.8C373.376 1534.16 481.106 1477.29 512.472 1375.76C543.837 1274.24 486.962 1166.51 385.437 1135.14C283.911 1103.78 176.182 1160.65 144.816 1262.18C113.45 1363.7 170.326 1471.43 271.851 1502.8Z" fill="#194239"/>
<path fill-rule="evenodd" clip-rule="evenodd" d="M267.046 1512.66C367.789 1543.78 474.689 1487.35 505.813 1386.6C536.937 1285.86 480.5 1178.96 379.757 1147.84C279.013 1116.71 172.114 1173.15 140.99 1273.89C109.865 1374.64 166.303 1481.54 267.046 1512.66Z" fill="#194139"/>
<path fill-rule="evenodd" clip-rule="evenodd" d="M262.241 1522.52C362.202 1553.41 468.272 1497.41 499.154 1397.45C530.037 1297.48 474.037 1191.41 374.076 1160.53C274.115 1129.65 168.046 1185.65 137.163 1285.61C106.281 1385.57 162.28 1491.64 262.241 1522.52Z" fill="#194038"/>
<path fill-rule="evenodd" clip-rule="evenodd" d="M257.436 1532.39C356.615 1563.03 461.855 1507.47 492.495 1408.29C523.136 1309.11 467.575 1203.87 368.396 1173.23C269.217 1142.59 163.977 1198.15 133.337 1297.33C102.696 1396.51 158.257 1501.75 257.436 1532.39Z" fill="#194037"/>
<path fill-rule="evenodd" clip-rule="evenodd" d="M252.633 1542.25C351.03 1572.65 455.439 1517.53 485.839 1419.13C516.238 1320.73 461.115 1216.32 362.718 1185.92C264.321 1155.53 159.911 1210.65 129.512 1309.05C99.1127 1407.44 154.236 1511.85 252.633 1542.25Z" fill="#183F37"/>
<path fill-rule="evenodd" clip-rule="evenodd" d="M247.828 1552.11C345.442 1582.27 449.022 1527.59 479.18 1429.97C509.338 1332.36 454.653 1228.78 357.038 1198.62C259.423 1168.46 155.843 1223.15 125.686 1320.76C95.5279 1418.38 150.213 1521.96 247.828 1552.11Z" fill="#183E36"/>
<path fill-rule="evenodd" clip-rule="evenodd" d="M243.022 1561.98C339.855 1591.89 442.605 1537.65 472.521 1440.81C502.437 1343.98 448.191 1241.23 351.358 1211.31C254.525 1181.4 151.775 1235.65 121.859 1332.48C91.943 1429.31 146.19 1532.06 243.022 1561.98Z" fill="#183D35"/>
<path fill-rule="evenodd" clip-rule="evenodd" d="M238.219 1571.84C334.27 1601.52 436.19 1547.71 465.865 1451.66C495.539 1355.61 441.73 1253.69 345.68 1224.01C249.629 1194.34 147.709 1248.14 118.034 1344.2C88.3601 1440.25 142.169 1542.17 238.219 1571.84Z" fill="#173D35"/>
<path fill-rule="evenodd" clip-rule="evenodd" d="M233.414 1581.7C328.683 1611.14 429.773 1557.77 459.206 1462.5C488.639 1367.23 435.268 1266.14 340 1236.71C244.731 1207.27 143.641 1260.64 114.208 1355.91C84.7752 1451.18 138.146 1552.27 233.414 1581.7Z" fill="#173C34"/>
<path fill-rule="evenodd" clip-rule="evenodd" d="M228.609 1591.57C323.095 1620.76 423.356 1567.83 452.547 1473.34C481.738 1378.85 428.806 1278.59 334.32 1249.4C239.833 1220.21 139.573 1273.14 110.381 1367.63C81.1902 1462.12 134.123 1562.38 228.609 1591.57Z" fill="#173B34"/>
<path fill-rule="evenodd" clip-rule="evenodd" d="M223.804 1601.43C317.508 1630.38 416.939 1577.89 445.888 1484.18C474.838 1390.48 422.344 1291.05 328.639 1262.1C234.935 1233.15 135.504 1285.64 106.555 1379.35C77.6053 1473.05 130.1 1572.48 223.804 1601.43Z" fill="#173A33"/>
<path fill-rule="evenodd" clip-rule="evenodd" d="M218.999 1611.29C311.921 1640 410.522 1587.95 439.23 1495.02C467.938 1402.1 415.882 1303.5 322.959 1274.79C230.037 1246.09 131.436 1298.14 102.728 1391.06C74.0204 1483.99 126.076 1582.59 218.999 1611.29Z" fill="#163A32"/>
<path fill-rule="evenodd" clip-rule="evenodd" d="M214.196 1621.16C306.336 1649.62 404.107 1598.01 432.573 1505.87C461.039 1413.73 409.421 1315.96 317.281 1287.49C225.141 1259.02 127.37 1310.64 98.9038 1402.78C70.4375 1494.92 122.055 1592.69 214.196 1621.16Z" fill="#163932"/>
<path fill-rule="evenodd" clip-rule="evenodd" d="M209.39 1631.02C300.749 1659.25 397.69 1608.07 425.914 1516.71C454.139 1425.35 402.959 1328.41 311.601 1300.19C220.243 1271.96 123.302 1323.14 95.0773 1414.5C66.8526 1505.86 118.032 1602.8 209.39 1631.02Z" fill="#163831"/>
<path fill-rule="evenodd" clip-rule="evenodd" d="M204.585 1640.89C295.161 1668.87 391.272 1618.13 419.255 1527.55C447.239 1436.98 396.497 1340.87 305.921 1312.88C215.345 1284.9 119.234 1335.64 91.2508 1426.22C63.2677 1516.79 114.009 1612.9 204.585 1640.89Z" fill="#163730"/>
<path fill-rule="evenodd" clip-rule="evenodd" d="M199.782 1650.75C289.576 1678.49 384.857 1628.19 412.599 1538.39C440.34 1448.6 390.037 1353.32 300.243 1325.58C210.449 1297.83 115.168 1348.14 87.4262 1437.93C59.6848 1527.73 109.988 1623.01 199.782 1650.75Z" fill="#153730"/>
<path d="M194.977 1660.61C283.989 1688.11 378.44 1638.25 405.94 1549.24C433.44 1460.22 383.574 1365.77 294.563 1338.27C205.551 1310.77 111.099 1360.64 83.5997 1449.65C56.0999 1538.66 105.965 1633.11 194.977 1660.61Z" fill="#15362F"/>
<path d="M667.155 1271.39C588.743 1407.2 635.276 1580.87 771.089 1659.28C906.902 1737.69 1080.57 1691.16 1158.98 1555.34C1237.39 1419.53 1190.86 1245.87 1055.04 1167.45C919.23 1089.04 745.566 1135.58 667.155 1271.39Z" fill="#318170"/>
<path fill-rule="evenodd" clip-rule="evenodd" d="M659.528 1265.26C581.481 1400.44 627.797 1573.29 762.978 1651.34C898.159 1729.39 1071.01 1683.07 1149.06 1547.89C1227.11 1412.71 1180.79 1239.85 1045.61 1161.81C910.43 1083.76 737.575 1130.08 659.528 1265.26Z" fill="#31806F"/>
<path fill-rule="evenodd" clip-rule="evenodd" d="M651.905 1259.13C574.223 1393.67 620.323 1565.72 754.872 1643.4C889.42 1721.08 1061.47 1674.98 1139.15 1540.44C1216.83 1405.89 1170.73 1233.84 1036.18 1156.16C901.633 1078.48 729.587 1124.58 651.905 1259.13Z" fill="#30806F"/>
<path fill-rule="evenodd" clip-rule="evenodd" d="M644.278 1252.99C566.961 1386.91 612.844 1558.15 746.761 1635.46C880.678 1712.78 1051.92 1666.9 1129.23 1532.98C1206.55 1399.06 1160.67 1227.83 1026.75 1150.51C892.833 1073.19 721.595 1119.08 644.278 1252.99Z" fill="#307F6E"/>
<path fill-rule="evenodd" clip-rule="evenodd" d="M636.651 1246.86C559.699 1380.15 605.366 1550.58 738.65 1627.53C871.934 1704.48 1042.36 1658.81 1119.32 1525.53C1196.27 1392.24 1150.6 1221.81 1017.32 1144.86C884.033 1067.91 713.603 1113.58 636.651 1246.86Z" fill="#307E6D"/>
<path fill-rule="evenodd" clip-rule="evenodd" d="M629.026 1240.73C552.439 1373.38 597.889 1543 730.541 1619.59C863.193 1696.18 1032.81 1650.73 1109.4 1518.07C1185.99 1385.42 1140.54 1215.8 1007.89 1139.21C875.234 1062.63 705.613 1108.08 629.026 1240.73Z" fill="#307D6D"/>
<path fill-rule="evenodd" clip-rule="evenodd" d="M621.401 1234.6C545.18 1366.62 590.413 1535.43 722.433 1611.65C854.452 1687.87 1023.27 1642.64 1099.49 1510.62C1175.71 1378.6 1130.48 1209.79 998.456 1133.57C866.436 1057.34 697.623 1102.58 621.401 1234.6Z" fill="#2F7D6C"/>
<path fill-rule="evenodd" clip-rule="evenodd" d="M613.776 1228.47C537.92 1359.85 582.936 1527.86 714.324 1603.72C845.711 1679.57 1013.72 1634.56 1089.57 1503.17C1165.43 1371.78 1120.41 1203.78 989.025 1127.92C857.637 1052.06 689.633 1097.08 613.776 1228.47Z" fill="#2F7C6B"/>
<path fill-rule="evenodd" clip-rule="evenodd" d="M606.149 1222.33C530.658 1353.09 575.458 1520.29 706.213 1595.78C836.968 1671.27 1004.16 1626.47 1079.66 1495.71C1155.15 1364.96 1110.35 1197.76 979.592 1122.27C848.837 1046.78 681.641 1091.58 606.149 1222.33Z" fill="#2F7B6B"/>
<path fill-rule="evenodd" clip-rule="evenodd" d="M598.524 1216.2C523.398 1346.33 567.981 1512.71 698.104 1587.84C828.227 1662.97 994.615 1618.38 1069.74 1488.26C1144.87 1358.14 1100.28 1191.75 970.162 1116.62C840.039 1041.5 673.651 1086.08 598.524 1216.2Z" fill="#2F7A6A"/>
<path fill-rule="evenodd" clip-rule="evenodd" d="M590.897 1210.07C516.136 1339.56 560.503 1505.14 689.994 1579.9C819.484 1654.66 985.064 1610.3 1059.83 1480.81C1134.59 1351.32 1090.22 1185.74 960.729 1110.98C831.238 1036.21 665.659 1080.58 590.897 1210.07Z" fill="#2E7A6A"/>
<path fill-rule="evenodd" clip-rule="evenodd" d="M583.272 1203.94C508.876 1332.8 553.026 1497.57 681.885 1571.96C810.743 1646.36 975.514 1602.21 1049.91 1473.35C1124.31 1344.49 1080.16 1179.72 951.298 1105.33C822.44 1030.93 657.669 1075.08 583.272 1203.94Z" fill="#2E7969"/>
<path fill-rule="evenodd" clip-rule="evenodd" d="M575.648 1197.81C501.616 1326.03 545.55 1490 673.776 1564.03C802.002 1638.06 965.965 1594.13 1040 1465.9C1114.03 1337.67 1070.09 1173.71 941.868 1099.68C813.641 1025.65 649.679 1069.58 575.648 1197.81Z" fill="#2E7868"/>
<path fill-rule="evenodd" clip-rule="evenodd" d="M568.023 1191.68C494.356 1319.27 538.073 1482.42 665.667 1556.09C793.261 1629.76 956.415 1586.04 1030.08 1458.45C1103.75 1330.85 1060.03 1167.7 932.437 1094.03C804.843 1020.37 641.689 1064.08 568.023 1191.68Z" fill="#2D7768"/>
<path fill-rule="evenodd" clip-rule="evenodd" d="M560.396 1185.54C487.094 1312.51 530.595 1474.85 657.556 1548.15C784.518 1621.45 946.864 1577.95 1020.17 1450.99C1093.47 1324.03 1049.97 1161.69 923.005 1088.38C796.043 1015.08 633.697 1058.58 560.396 1185.54Z" fill="#2D7767"/>
<path fill-rule="evenodd" clip-rule="evenodd" d="M552.769 1179.41C479.832 1305.74 523.116 1467.28 649.446 1540.22C775.775 1613.15 937.312 1569.87 1010.25 1443.54C1083.19 1317.21 1039.9 1155.67 913.572 1082.74C787.242 1009.8 625.705 1053.08 552.769 1179.41Z" fill="#2D7666"/>
<path fill-rule="evenodd" clip-rule="evenodd" d="M545.144 1173.28C472.572 1298.98 515.64 1459.71 641.337 1532.28C767.034 1604.85 927.763 1561.78 1000.33 1436.09C1072.91 1310.39 1029.84 1149.66 904.141 1077.09C778.444 1004.52 617.715 1047.58 545.144 1173.28Z" fill="#2D7566"/>
<path fill-rule="evenodd" clip-rule="evenodd" d="M537.519 1167.15C465.312 1292.21 508.163 1452.13 633.228 1524.34C758.293 1596.55 918.213 1553.7 990.42 1428.63C1062.63 1303.57 1019.78 1143.65 894.711 1071.44C769.645 999.233 609.725 1042.08 537.519 1167.15Z" fill="#2C7465"/>
<path fill-rule="evenodd" clip-rule="evenodd" d="M529.894 1161.02C458.052 1285.45 500.686 1444.56 625.119 1516.4C749.552 1588.25 908.664 1545.61 980.505 1421.18C1052.35 1296.75 1009.71 1137.63 885.28 1065.79C760.847 993.951 601.735 1036.58 529.894 1161.02Z" fill="#2C7464"/>
<path fill-rule="evenodd" clip-rule="evenodd" d="M522.269 1154.89C450.793 1278.69 493.21 1436.99 617.011 1508.47C740.811 1579.94 899.115 1537.53 970.591 1413.72C1042.07 1289.92 999.65 1131.62 875.849 1060.14C752.049 988.668 593.745 1031.09 522.269 1154.89Z" fill="#2C7364"/>
<path fill-rule="evenodd" clip-rule="evenodd" d="M514.642 1148.75C443.531 1271.92 485.731 1429.42 608.9 1500.53C732.068 1571.64 889.563 1529.44 960.674 1406.27C1031.79 1283.1 989.585 1125.61 866.417 1054.5C743.248 983.385 585.753 1025.59 514.642 1148.75Z" fill="#2B7263"/>
<path fill-rule="evenodd" clip-rule="evenodd" d="M507.017 1142.62C436.271 1265.16 478.255 1421.84 600.791 1492.59C723.327 1563.34 880.014 1521.35 950.76 1398.82C1021.51 1276.28 979.522 1119.59 856.986 1048.85C734.45 978.102 577.763 1020.09 507.017 1142.62Z" fill="#2B7162"/>
<path fill-rule="evenodd" clip-rule="evenodd" d="M499.392 1136.49C429.011 1258.39 470.778 1414.27 592.682 1484.65C714.586 1555.03 870.464 1513.27 940.845 1391.36C1011.23 1269.46 969.459 1113.58 847.555 1043.2C725.651 972.818 569.773 1014.59 499.392 1136.49Z" fill="#2B7162"/>
<path fill-rule="evenodd" clip-rule="evenodd" d="M491.765 1130.36C421.749 1251.63 463.3 1406.7 584.572 1476.72C705.843 1546.73 860.913 1505.18 930.929 1383.91C1000.95 1262.64 959.394 1107.57 838.123 1037.55C716.851 967.536 561.781 1009.09 491.765 1130.36Z" fill="#2B7061"/>
<path fill-rule="evenodd" clip-rule="evenodd" d="M484.14 1124.23C414.489 1244.87 455.823 1399.13 576.463 1468.78C697.102 1538.43 851.363 1497.1 921.015 1376.46C990.666 1255.82 949.332 1101.56 828.692 1031.91C708.053 962.254 553.791 1003.59 484.14 1124.23Z" fill="#2A6F61"/>
<path fill-rule="evenodd" clip-rule="evenodd" d="M476.513 1118.09C407.227 1238.1 448.345 1391.55 568.352 1460.84C688.359 1530.13 841.812 1489.01 911.098 1369C980.384 1248.99 939.267 1095.54 819.259 1026.26C699.252 956.97 545.8 998.087 476.513 1118.09Z" fill="#2A6E60"/>
<path fill-rule="evenodd" clip-rule="evenodd" d="M468.888 1111.96C399.967 1231.34 440.868 1383.98 560.243 1452.9C679.618 1521.83 832.262 1480.92 901.184 1361.55C970.105 1242.17 929.204 1089.53 809.829 1020.61C690.454 951.688 537.81 992.589 468.888 1111.96Z" fill="#2A6E5F"/>
<path fill-rule="evenodd" clip-rule="evenodd" d="M461.262 1105.83C392.705 1224.57 433.39 1376.41 552.132 1444.97C670.875 1513.52 822.711 1472.84 891.267 1354.1C959.823 1235.35 919.139 1083.52 800.396 1014.96C681.653 946.405 529.818 987.089 461.262 1105.83Z" fill="#2A6D5F"/>
<path fill-rule="evenodd" clip-rule="evenodd" d="M453.637 1099.7C385.445 1217.81 425.913 1368.84 544.024 1437.03C662.134 1505.22 813.162 1464.75 881.353 1346.64C949.544 1228.53 909.076 1077.5 790.966 1009.31C672.855 941.122 521.828 981.589 453.637 1099.7Z" fill="#296C5E"/>
<path fill-rule="evenodd" clip-rule="evenodd" d="M446.012 1093.57C378.186 1211.05 418.437 1361.27 535.915 1429.09C653.393 1496.92 803.612 1456.67 871.438 1339.19C939.264 1221.71 899.013 1071.49 781.535 1003.67C664.057 935.84 513.838 976.091 446.012 1093.57Z" fill="#296B5D"/>
<path fill-rule="evenodd" clip-rule="evenodd" d="M438.385 1087.44C370.924 1204.28 410.958 1353.69 527.804 1421.15C644.65 1488.61 794.061 1448.58 861.522 1331.73C928.983 1214.89 888.948 1065.48 772.102 998.017C655.256 930.556 505.846 970.59 438.385 1087.44Z" fill="#296B5D"/>
<path fill-rule="evenodd" clip-rule="evenodd" d="M430.76 1081.31C363.664 1197.52 403.481 1346.12 519.695 1413.22C635.909 1480.31 784.511 1440.5 851.607 1324.28C918.703 1208.07 878.885 1059.47 762.672 992.37C646.458 925.273 497.856 965.091 430.76 1081.31Z" fill="#286A5C"/>
<path fill-rule="evenodd" clip-rule="evenodd" d="M423.135 1075.17C356.404 1190.75 396.005 1338.55 511.587 1405.28C627.168 1472.01 774.962 1432.41 841.693 1316.83C908.424 1201.25 868.823 1053.45 753.241 986.721C637.659 919.99 489.866 959.592 423.135 1075.17Z" fill="#28695B"/>
<path fill-rule="evenodd" clip-rule="evenodd" d="M415.508 1069.04C349.142 1183.99 388.526 1330.98 503.476 1397.34C618.425 1463.71 765.41 1424.32 831.776 1309.37C898.142 1194.42 858.758 1047.44 743.808 981.073C628.859 914.707 481.874 954.092 415.508 1069.04Z" fill="#28685B"/>
<path fill-rule="evenodd" clip-rule="evenodd" d="M407.883 1062.91C341.882 1177.23 381.05 1323.4 495.367 1389.4C609.684 1455.41 755.861 1416.24 821.862 1301.92C887.863 1187.6 848.695 1041.43 734.378 975.425C620.061 909.424 473.884 948.592 407.883 1062.91Z" fill="#28685A"/>
<path fill-rule="evenodd" clip-rule="evenodd" d="M400.256 1056.78C334.62 1170.46 373.571 1315.83 487.256 1381.47C600.941 1447.1 746.309 1408.15 811.945 1294.47C877.581 1180.78 838.63 1035.41 724.945 969.777C611.26 904.141 465.892 943.093 400.256 1056.78Z" fill="#276759"/>
<path fill-rule="evenodd" clip-rule="evenodd" d="M392.633 1050.65C327.362 1163.7 366.097 1308.26 479.149 1373.53C592.202 1438.8 736.762 1400.07 802.033 1287.01C867.304 1173.96 828.569 1029.4 715.516 964.129C602.464 898.858 457.904 937.593 392.633 1050.65Z" fill="#276659"/>
<path fill-rule="evenodd" clip-rule="evenodd" d="M385.006 1044.51C320.1 1156.93 358.618 1300.69 471.039 1365.59C583.459 1430.5 727.21 1391.98 792.116 1279.56C857.022 1167.14 818.504 1023.39 706.084 958.481C593.663 893.575 449.912 932.093 385.006 1044.51Z" fill="#276658"/>
<path fill-rule="evenodd" clip-rule="evenodd" d="M377.381 1038.38C312.84 1150.17 351.142 1293.11 462.93 1357.65C574.718 1422.2 717.661 1383.89 782.202 1272.11C846.743 1160.32 808.441 1017.37 696.653 952.834C584.865 888.293 441.922 926.595 377.381 1038.38Z" fill="#266558"/>
<path fill-rule="evenodd" clip-rule="evenodd" d="M369.754 1032.25C305.578 1143.41 343.663 1285.54 454.819 1349.72C565.975 1413.89 708.11 1375.81 772.285 1264.65C836.461 1153.5 798.376 1011.36 687.221 947.186C576.065 883.01 433.93 921.095 369.754 1032.25Z" fill="#266457"/>
<path fill-rule="evenodd" clip-rule="evenodd" d="M362.131 1026.12C298.32 1136.64 336.189 1277.97 446.712 1341.78C557.236 1405.59 698.562 1367.72 762.373 1257.2C826.184 1146.68 788.316 1005.35 677.792 941.539C567.268 877.728 425.942 915.596 362.131 1026.12Z" fill="#266356"/>
<path fill-rule="evenodd" clip-rule="evenodd" d="M354.503 1019.99C291.057 1129.88 328.708 1270.4 438.6 1333.84C548.491 1397.29 689.009 1359.64 752.454 1249.74C815.9 1139.85 778.249 999.336 668.357 935.89C558.466 872.444 417.948 910.096 354.503 1019.99Z" fill="#266356"/>
<path fill-rule="evenodd" clip-rule="evenodd" d="M346.878 1013.86C283.797 1123.12 321.232 1262.82 430.491 1325.91C539.75 1388.99 679.459 1351.55 742.54 1242.29C805.621 1133.03 768.186 993.324 658.927 930.243C549.667 867.162 409.958 904.597 346.878 1013.86Z" fill="#256255"/>
<path fill-rule="evenodd" clip-rule="evenodd" d="M339.253 1007.72C276.537 1116.35 313.755 1255.25 422.382 1317.97C531.009 1380.68 669.91 1343.47 732.625 1234.84C795.341 1126.21 758.123 987.311 649.496 924.595C540.869 861.879 401.968 899.097 339.253 1007.72Z" fill="#256154"/>
<path fill-rule="evenodd" clip-rule="evenodd" d="M331.628 1001.59C269.277 1109.59 306.279 1247.68 414.273 1310.03C522.268 1372.38 660.36 1335.38 722.711 1227.38C785.062 1119.39 748.06 981.297 640.065 918.947C532.071 856.596 393.978 893.598 331.628 1001.59Z" fill="#256054"/>
<path fill-rule="evenodd" clip-rule="evenodd" d="M324.001 995.461C262.015 1102.82 298.8 1240.11 406.163 1302.09C513.525 1364.08 650.809 1327.29 712.795 1219.93C774.78 1112.57 737.995 975.285 630.633 913.3C523.27 851.314 385.986 888.099 324.001 995.461Z" fill="#256053"/>
<path fill-rule="evenodd" clip-rule="evenodd" d="M316.378 989.329C254.757 1096.06 291.325 1232.53 398.056 1294.15C504.786 1355.78 641.261 1319.21 702.882 1212.48C764.503 1105.75 727.934 969.271 621.204 907.651C514.474 846.03 377.998 882.598 316.378 989.329Z" fill="#245F52"/>
<path fill-rule="evenodd" clip-rule="evenodd" d="M308.751 983.198C247.495 1089.3 283.847 1224.96 389.945 1286.22C496.043 1347.47 631.71 1311.12 692.966 1205.02C754.221 1098.93 717.869 963.259 611.771 902.003C505.673 840.748 370.006 877.1 308.751 983.198Z" fill="#245E52"/>
<path fill-rule="evenodd" clip-rule="evenodd" d="M301.126 977.066C240.235 1082.53 276.37 1217.39 381.836 1278.28C487.302 1339.17 622.16 1303.04 683.051 1197.57C743.942 1092.1 707.807 957.246 602.341 896.355C496.875 835.465 362.017 871.6 301.126 977.066Z" fill="#245D51"/>
<path fill-rule="evenodd" clip-rule="evenodd" d="M293.499 970.934C232.973 1075.77 268.892 1209.82 373.725 1270.34C478.559 1330.87 612.609 1294.95 673.135 1190.12C733.66 1085.28 697.742 951.233 592.908 890.707C488.075 830.182 354.025 866.1 293.499 970.934Z" fill="#235D50"/>
<path fill-rule="evenodd" clip-rule="evenodd" d="M285.874 964.802C225.713 1069 261.415 1202.24 365.617 1262.41C469.818 1322.57 603.06 1286.86 663.22 1182.66C723.381 1078.46 687.679 945.22 583.478 885.059C479.276 824.899 346.035 860.601 285.874 964.802Z" fill="#235C50"/>
<path fill-rule="evenodd" clip-rule="evenodd" d="M278.247 958.671C218.452 1062.24 253.937 1194.67 357.506 1254.47C461.075 1314.26 593.508 1278.78 653.304 1175.21C713.099 1071.64 677.614 939.208 574.045 879.412C470.476 819.617 338.043 855.102 278.247 958.671Z" fill="#235B4F"/>
<path fill-rule="evenodd" clip-rule="evenodd" d="M270.622 952.539C211.192 1055.48 246.46 1187.1 349.397 1246.53C452.334 1305.96 583.959 1270.69 643.389 1167.76C702.82 1064.82 667.551 933.195 564.614 873.764C461.677 814.334 330.053 849.602 270.622 952.539Z" fill="#235A4F"/>
<path fill-rule="evenodd" clip-rule="evenodd" d="M262.997 946.407C203.932 1048.71 238.984 1179.53 341.288 1238.59C443.593 1297.66 574.409 1262.61 633.475 1160.3C692.54 1058 657.488 927.182 555.184 868.116C452.879 809.05 322.063 844.103 262.997 946.407Z" fill="#225A4E"/>
<path fill-rule="evenodd" clip-rule="evenodd" d="M255.37 940.275C196.67 1041.95 231.505 1171.96 333.178 1230.66C434.85 1289.36 564.858 1254.52 623.558 1152.85C682.259 1051.18 647.423 921.168 545.751 862.468C444.079 803.767 314.071 838.603 255.37 940.275Z" fill="#22594D"/>
<path fill-rule="evenodd" clip-rule="evenodd" d="M247.745 934.144C189.41 1035.18 224.029 1164.38 325.069 1222.72C426.109 1281.05 555.308 1246.44 613.644 1145.4C671.979 1044.36 637.36 915.156 536.32 856.821C435.28 798.485 306.081 833.104 247.745 934.144Z" fill="#22584D"/>
<path fill-rule="evenodd" clip-rule="evenodd" d="M240.12 928.011C182.15 1028.42 216.552 1156.81 316.96 1214.78C417.368 1272.75 545.759 1238.35 603.729 1137.94C661.7 1037.53 627.297 909.142 526.89 851.172C426.482 793.201 298.091 827.604 240.12 928.011Z" fill="#21574C"/>
<path fill-rule="evenodd" clip-rule="evenodd" d="M232.493 921.881C174.888 1021.66 209.074 1149.24 308.849 1206.84C408.625 1264.45 536.207 1230.26 593.813 1130.49C651.418 1030.71 617.233 903.13 517.457 845.525C417.681 787.919 290.099 822.105 232.493 921.881Z" fill="#21574B"/>
<path fill-rule="evenodd" clip-rule="evenodd" d="M224.869 915.748C167.628 1014.89 201.597 1141.67 300.74 1198.91C399.884 1256.15 526.658 1222.18 583.898 1123.03C641.139 1023.89 607.17 897.116 508.026 839.876C408.883 782.635 282.109 816.604 224.869 915.748Z" fill="#21564B"/>
<path fill-rule="evenodd" clip-rule="evenodd" d="M217.244 909.616C160.368 1008.13 194.121 1134.09 292.632 1190.97C391.143 1247.84 517.108 1214.09 573.984 1115.58C630.859 1017.07 597.107 891.103 498.596 834.228C400.085 777.352 274.119 811.105 217.244 909.616Z" fill="#21554A"/>
<path fill-rule="evenodd" clip-rule="evenodd" d="M209.617 903.485C153.106 1001.36 186.642 1126.52 284.521 1183.03C382.4 1239.54 507.557 1206.01 564.067 1108.13C620.578 1010.25 587.042 885.091 489.163 828.581C391.284 772.07 266.127 805.606 209.617 903.485Z" fill="#205449"/>
<path fill-rule="evenodd" clip-rule="evenodd" d="M201.992 897.354C145.846 994.601 179.166 1118.95 276.412 1175.09C373.659 1231.24 498.008 1197.92 554.153 1100.67C610.298 1003.43 576.979 879.079 479.732 822.933C382.486 766.788 258.137 800.107 201.992 897.354Z" fill="#205449"/>
<path fill-rule="evenodd" clip-rule="evenodd" d="M194.367 891.222C138.586 987.836 171.689 1111.38 268.303 1167.16C364.918 1222.94 488.458 1189.83 544.238 1093.22C600.019 996.606 566.916 873.066 470.302 817.285C373.687 761.505 250.147 794.608 194.367 891.222Z" fill="#205348"/>
<path fill-rule="evenodd" clip-rule="evenodd" d="M186.742 885.089C131.327 981.071 164.212 1103.8 260.195 1159.22C356.177 1214.63 478.909 1181.75 534.324 1085.77C589.739 989.784 556.853 867.052 460.871 811.636C364.889 756.221 242.157 789.107 186.742 885.089Z" fill="#205247"/>
<path fill-rule="evenodd" clip-rule="evenodd" d="M179.115 878.959C124.065 974.309 156.734 1096.23 252.084 1151.28C347.434 1206.33 469.357 1173.66 524.407 1078.31C579.458 982.964 546.788 861.04 451.439 805.99C356.089 750.94 234.165 783.609 179.115 878.959Z" fill="#1F5147"/>
<path fill-rule="evenodd" clip-rule="evenodd" d="M171.488 872.827C116.803 967.545 149.255 1088.66 243.973 1143.35C338.691 1198.03 459.806 1165.58 514.491 1070.86C569.176 976.142 536.724 855.027 442.006 800.342C347.288 745.657 226.173 778.11 171.488 872.827Z" fill="#1F5146"/>
<path fill-rule="evenodd" clip-rule="evenodd" d="M163.865 866.695C109.545 960.781 141.781 1081.09 235.866 1135.41C329.952 1189.73 450.258 1157.49 504.579 1063.41C558.899 969.321 526.663 849.014 432.577 794.694C338.492 740.374 218.185 772.61 163.865 866.695Z" fill="#1F5046"/>
<path fill-rule="evenodd" clip-rule="evenodd" d="M156.238 860.563C102.283 954.017 134.302 1073.51 227.756 1127.47C321.209 1181.43 440.707 1149.41 494.662 1055.95C548.617 962.499 516.598 843.001 423.145 789.046C329.691 735.091 210.193 767.11 156.238 860.563Z" fill="#1E4F45"/>
<path fill-rule="evenodd" clip-rule="evenodd" d="M148.613 854.432C95.0229 947.252 126.826 1065.94 219.647 1119.53C312.468 1173.12 431.157 1141.32 484.748 1048.5C538.338 955.678 506.535 836.988 413.714 783.398C320.893 729.808 202.203 761.611 148.613 854.432Z" fill="#1E4F44"/>
<path fill-rule="evenodd" clip-rule="evenodd" d="M140.986 848.3C87.7611 940.488 119.347 1058.37 211.536 1111.59C303.725 1164.82 421.606 1133.23 474.831 1041.04C528.056 948.856 496.47 830.975 404.281 777.75C312.093 724.525 194.211 756.111 140.986 848.3Z" fill="#1E4E44"/>
<path fill-rule="evenodd" clip-rule="evenodd" d="M133.361 842.168C80.5011 933.724 111.871 1050.8 203.427 1103.66C294.984 1156.52 412.056 1125.15 464.917 1033.59C517.777 942.035 486.407 824.962 394.851 772.102C303.294 719.242 186.221 750.611 133.361 842.168Z" fill="#1E4D43"/>
<path fill-rule="evenodd" clip-rule="evenodd" d="M125.736 836.037C73.2412 926.961 104.394 1043.23 195.318 1095.72C286.243 1148.22 402.507 1117.06 455.002 1026.14C507.497 935.214 476.344 818.95 385.42 766.455C294.496 713.96 178.231 745.113 125.736 836.037Z" fill="#1D4C42"/>
<path fill-rule="evenodd" clip-rule="evenodd" d="M118.109 829.905C65.9793 920.197 96.9157 1035.65 187.208 1087.78C277.5 1139.91 392.956 1108.98 445.086 1018.68C497.216 928.393 466.279 812.937 375.987 760.807C285.695 708.677 170.24 739.613 118.109 829.905Z" fill="#1D4C42"/>
<path fill-rule="evenodd" clip-rule="evenodd" d="M110.484 823.772C58.7194 913.432 89.4391 1028.08 179.099 1079.84C268.759 1131.61 383.406 1100.89 435.171 1011.23C486.936 921.57 456.217 806.923 366.557 755.158C276.897 703.392 162.25 734.112 110.484 823.772Z" fill="#1D4B41"/>
<path fill-rule="evenodd" clip-rule="evenodd" d="M102.86 817.641C51.4595 906.669 81.9626 1020.51 170.99 1071.91C260.018 1123.31 373.857 1092.8 425.257 1003.78C476.657 914.75 446.154 800.911 357.126 749.511C268.099 698.11 154.26 728.614 102.86 817.641Z" fill="#1C4A40"/>
<path fill-rule="evenodd" clip-rule="evenodd" d="M95.2327 811.509C44.1976 899.904 74.4841 1012.94 162.879 1063.97C251.275 1115.01 364.305 1084.72 415.34 996.323C466.375 907.928 436.089 794.897 347.694 743.862C259.298 692.827 146.268 723.114 95.2327 811.509Z" fill="#1C4940"/>
<path fill-rule="evenodd" clip-rule="evenodd" d="M87.6097 805.377C36.9396 893.14 67.0095 1005.36 154.773 1056.03C242.536 1106.7 354.758 1076.63 405.428 988.87C456.098 901.107 426.028 788.884 338.265 738.214C250.502 687.544 138.28 717.614 87.6097 805.377Z" fill="#1C493F"/>
<path fill-rule="evenodd" clip-rule="evenodd" d="M79.9827 799.245C29.6778 886.376 59.531 997.79 146.662 1048.09C233.793 1098.4 345.206 1068.55 395.511 981.416C445.816 894.285 415.963 782.871 328.832 732.566C241.701 682.261 130.288 712.115 79.9827 799.245Z" fill="#1C483E"/>
<path fill-rule="evenodd" clip-rule="evenodd" d="M72.3558 793.114C22.4159 879.613 52.0525 990.218 138.551 1040.16C225.05 1090.1 335.655 1060.46 385.595 973.963C435.535 887.464 405.898 776.859 319.4 726.919C232.901 676.979 122.296 706.616 72.3558 793.114Z" fill="#1B473E"/>
<path fill-rule="evenodd" clip-rule="evenodd" d="M64.7309 786.983C15.1559 872.849 44.5759 982.646 130.442 1032.22C216.309 1081.8 326.105 1052.38 375.68 966.509C425.255 880.643 395.835 770.846 309.969 721.271C224.103 671.696 114.306 701.116 64.7309 786.983Z" fill="#1B463D"/>
<path fill-rule="evenodd" clip-rule="evenodd" d="M57.1059 780.85C7.89602 866.084 37.0994 975.072 122.333 1024.28C207.568 1073.49 316.556 1044.29 365.766 959.054C414.976 873.82 385.772 764.832 300.538 715.622C215.304 666.412 106.316 695.616 57.1059 780.85Z" fill="#1B463D"/>
<path fill-rule="evenodd" clip-rule="evenodd" d="M49.479 774.719C0.634144 859.321 29.6209 967.501 114.223 1016.35C198.825 1065.19 307.005 1036.2 355.849 951.602C404.694 867 375.708 758.82 291.106 709.975C206.504 661.13 98.3239 690.117 49.479 774.719Z" fill="#1B453C"/>
<path fill-rule="evenodd" clip-rule="evenodd" d="M41.8541 768.587C-6.62581 852.556 22.1443 959.928 106.114 1008.41C190.084 1056.89 297.455 1028.12 345.935 944.148C394.415 860.178 365.645 752.807 281.675 704.327C197.705 655.847 90.3339 684.617 41.8541 768.587Z" fill="#1A443B"/>
<path fill-rule="evenodd" clip-rule="evenodd" d="M34.2291 762.455C-13.8857 845.792 14.6678 952.355 98.0051 1000.47C181.343 1048.59 287.906 1020.03 336.02 936.694C384.135 853.357 355.582 746.794 272.244 698.679C188.907 650.564 82.344 679.118 34.2291 762.455Z" fill="#1A433B"/>
<path fill-rule="evenodd" clip-rule="evenodd" d="M26.6022 756.324C-21.1475 839.029 7.18934 944.784 89.8944 992.534C172.6 1040.28 278.354 1011.95 326.104 929.241C373.854 846.536 345.517 740.782 262.812 693.032C180.107 645.282 74.3521 673.619 26.6022 756.324Z" fill="#1A433A"/>
<path fill-rule="evenodd" clip-rule="evenodd" d="M18.9772 750.192C-28.4076 832.265 -0.287302 937.211 81.7856 984.596C163.858 1031.98 268.805 1003.86 316.189 921.788C363.574 839.715 335.454 734.768 253.381 687.384C171.308 639.999 66.362 668.119 18.9772 750.192Z" fill="#194239"/>
<path fill-rule="evenodd" clip-rule="evenodd" d="M11.3523 744.06C-35.6675 825.501 -7.76384 929.639 73.6768 976.658C155.117 1023.68 259.255 995.774 306.275 914.334C353.295 832.893 325.391 728.755 243.95 681.736C162.51 634.716 58.3721 662.62 11.3523 744.06Z" fill="#194139"/>
<path fill-rule="evenodd" clip-rule="evenodd" d="M3.7254 737.928C-42.9293 818.737 -15.2423 922.066 65.5661 968.721C146.374 1015.38 249.704 987.688 296.359 906.88C343.013 826.072 315.326 722.742 234.518 676.088C153.709 629.433 50.3802 657.12 3.7254 737.928Z" fill="#194038"/>
<path fill-rule="evenodd" clip-rule="evenodd" d="M-3.8996 731.797C-50.1893 811.973 -22.7189 914.494 57.4573 960.784C137.633 1007.07 240.154 979.603 286.444 899.427C332.734 819.251 305.263 716.73 225.087 670.44C144.911 624.151 42.3902 651.621 -3.8996 731.797Z" fill="#194037"/>
<path fill-rule="evenodd" clip-rule="evenodd" d="M-11.5264 725.665C-57.4511 805.209 -30.1974 906.922 49.3466 952.846C128.89 998.771 230.603 971.517 276.528 891.973C322.452 812.43 295.199 710.717 215.655 664.792C136.111 618.868 34.3982 646.121 -11.5264 725.665Z" fill="#183F37"/>
<path fill-rule="evenodd" clip-rule="evenodd" d="M-19.1495 719.534C-64.7091 798.445 -37.672 899.349 41.2397 944.909C120.151 990.469 221.055 963.431 266.615 884.52C312.175 805.608 285.138 704.704 206.226 659.144C127.314 613.585 26.4102 640.622 -19.1495 719.534Z" fill="#183E36"/>
<path fill-rule="evenodd" clip-rule="evenodd" d="M-26.7763 713.402C-71.971 791.681 -45.1504 891.777 33.129 936.971C111.408 982.166 211.504 955.345 256.699 877.066C301.893 798.786 275.073 698.691 196.793 653.496C118.514 608.302 18.4183 635.122 -26.7763 713.402Z" fill="#183D35"/>
<path fill-rule="evenodd" clip-rule="evenodd" d="M-34.4012 707.27C-79.2309 784.917 -52.627 884.204 25.0202 929.034C102.667 973.863 201.955 947.259 246.784 869.612C291.614 791.965 265.01 692.678 187.363 647.848C109.715 603.019 10.4284 629.623 -34.4012 707.27Z" fill="#173D35"/>
<path fill-rule="evenodd" clip-rule="evenodd" d="M-42.0282 701.139C-86.4927 778.154 -60.1055 876.632 16.9095 921.097C93.9244 965.562 192.403 939.174 236.868 862.159C281.332 785.144 254.945 686.666 177.93 642.201C100.915 597.737 2.43644 624.124 -42.0282 701.139Z" fill="#173C34"/>
<path fill-rule="evenodd" clip-rule="evenodd" d="M-49.6532 695.007C-93.7527 771.39 -67.5821 869.06 8.80064 913.159C85.1834 957.259 182.854 931.088 226.953 854.706C271.053 778.323 244.882 680.653 168.499 636.553C92.1166 592.453 -5.55358 618.624 -49.6532 695.007Z" fill="#173B34"/>
<path fill-rule="evenodd" clip-rule="evenodd" d="M-57.28 688.874C-101.015 764.624 -75.0605 861.486 0.68995 905.221C76.4404 948.955 173.302 923.001 217.037 847.251C260.771 771.5 234.817 674.639 159.067 630.904C83.3163 587.169 -13.5455 613.124 -57.28 688.874Z" fill="#173A33"/>
<path fill-rule="evenodd" clip-rule="evenodd" d="M-64.9049 682.743C-108.274 757.861 -82.5371 853.915 -7.41882 897.284C67.6994 940.654 163.753 914.916 207.122 839.798C250.492 764.68 224.754 668.626 149.636 625.257C74.5179 581.887 -21.5354 607.625 -64.9049 682.743Z" fill="#163A32"/>
<path fill-rule="evenodd" clip-rule="evenodd" d="M-72.53 676.61C-115.534 751.096 -90.0137 846.341 -15.5277 889.346C58.9583 932.35 154.203 906.829 197.208 832.343C240.212 757.857 214.691 662.612 140.205 619.608C65.7194 576.603 -29.5255 602.124 -72.53 676.61Z" fill="#163932"/>
<path fill-rule="evenodd" clip-rule="evenodd" d="M-80.1569 670.479C-122.796 744.333 -97.4922 838.769 -23.6384 881.409C50.2154 924.048 144.652 898.744 187.291 824.891C229.931 751.037 204.627 656.6 130.773 613.961C56.9191 571.321 -37.5174 596.625 -80.1569 670.479Z" fill="#163831"/>
<path fill-rule="evenodd" clip-rule="evenodd" d="M-87.7818 664.347C-130.056 737.569 -104.969 831.197 -31.7472 873.471C41.4744 915.746 135.102 890.658 177.377 817.437C219.651 744.215 194.564 650.587 121.342 608.313C48.1207 566.038 -45.5073 591.126 -87.7818 664.347Z" fill="#163730"/>
<path fill-rule="evenodd" clip-rule="evenodd" d="M-95.4068 658.216C-137.316 730.806 -112.445 823.625 -39.856 865.535C32.7333 907.444 125.553 882.573 167.462 809.984C209.372 737.395 184.501 644.575 111.912 602.666C39.3222 560.756 -53.4973 585.627 -95.4068 658.216Z" fill="#153730"/>
<path d="M-103.034 652.085C-144.578 724.042 -119.924 816.053 -47.9667 857.597C23.9903 899.142 116.001 874.487 157.546 802.53C199.09 730.573 174.436 638.562 102.479 597.018C30.5219 555.473 -61.4893 580.127 -103.034 652.085Z" fill="#15362F"/>
</g>
</g>
<defs>
<clipPath id="clip0_5244_19578">
<rect width="900" height="2700" fill="white"/>
</clipPath>
</defs>
</svg>
